<svg width="32" height="32" viewBox="0 0 32 32" fill="none" xmlns="http://www.w3.org/2000/svg">
<path fill-rule="evenodd" clip-rule="evenodd" d="M6.66634 8H25.333C26.0694 8 26.6663 8.59695 26.6663 9.33333C26.6663 10.0697 26.0694 10.6667 25.333 10.6667H6.66634C5.92996 10.6667 5.33301 10.0697 5.33301 9.33333C5.33301 8.59695 5.92996 8 6.66634 8ZM6.66634 14.6667H25.333C26.0694 14.6667 26.6663 15.2636 26.6663 16C26.6663 16.7364 26.0694 17.3333 25.333 17.3333H6.66634C5.92996 17.3333 5.33301 16.7364 5.33301 16C5.33301 15.2636 5.92996 14.6667 6.66634 14.6667ZM6.66634 21.3333H25.333C26.0694 21.3333 26.6663 21.9303 26.6663 22.6667C26.6663 23.403 26.0694 24 25.333 24H6.66634C5.92996 24 5.33301 23.403 5.33301 22.6667C5.33301 21.9303 5.92996 21.3333 6.66634 21.3333Z" fill="black"/>
</svg>
