<svg width="32" height="32" viewBox="0 0 32 32" fill="none" xmlns="http://www.w3.org/2000/svg">
<path d="M24.9402 14.1966C25.2628 14.878 25.733 15.6221 25.985 15.8501C26.7761 16.5661 26.5657 17.4282 25.3117 18.6089C24.3265 19.5365 22.7415 21.1685 20.3336 23.807C19.2626 24.9808 17.9025 24.7602 18.5448 23.517C18.678 23.2591 19.6322 22.24 21.118 20.7347C22.6872 19.145 23.731 17.9095 23.6085 17.7868C23.4859 17.6643 22.2591 17.7552 21.5033 17.7808C20.5327 17.8425 20.062 17.8724 18.8488 17.8916C17.2058 17.9175 13.4638 18.2162 11.8097 17.8166C10.0086 17.3814 8.97649 16.7267 7.60504 14.6508C6.63295 13.1794 6.78553 11.3076 6.65095 9.80076C6.43211 7.35053 6.69566 6.94927 8.03514 6.97956C8.48598 6.98976 8.72213 8.10729 8.5497 8.78839C8.16063 10.3253 8.52153 12.3215 9.32682 13.64C10.1059 14.9155 11.1465 15.548 11.6827 15.7879C12.4497 16.1311 13.6695 16.2659 15.7283 16.2767C17.5625 16.2863 21.0121 16.1694 23.5056 16.0182C23.6694 16.0081 23.8034 15.9177 23.8034 15.8168C23.8034 15.3499 21.366 12.294 20.1721 11.0414C19.1731 9.99335 18.8672 9.50798 18.9212 9.05685C19.0199 8.2337 20.0632 8.18021 20.6808 9.00221C21.2984 9.82422 24.3638 12.9791 24.9402 14.1966Z" fill="black"/>
</svg>
