<svg width="150" height="150" viewBox="0 0 150 150" fill="none" xmlns="http://www.w3.org/2000/svg">
<path d="M96.3784 91.0399L96.9921 46.6917H64.7519C61.3264 46.6917 58.5029 49.3786 58.3332 52.8L57.7673 91.0399H96.3784Z" fill="#D7E9F9"/>
<path d="M81.6348 91.0398L78.6025 48.1972H76.1693L73.137 91.0398H81.6348Z" fill="#FF7581"/>
<path d="M81.6348 91.0398L78.6025 48.1972H77.3823L80.3592 91.0398H81.6348Z" fill="#F26678"/>
<path d="M82.1738 46.6981L77.4476 51.4243L72.7215 46.6981H82.1738Z" fill="#FF7581"/>
<path d="M69.8809 91.0399L72.427 46.6965H58.6363L57.3907 91.0399H69.8809Z" fill="#6B8AFF"/>
<path d="M97.7361 91.0399L96.9921 46.6965H82.3432L84.8893 91.0399H97.7361Z" fill="#6B8AFF"/>
<path d="M90.9843 20.9009C92.1685 24.1248 91.1306 30.1363 87.9264 31.6233C85.4714 32.7626 82.4287 29.8816 81.5179 26.2652C80.6049 22.6405 81.9972 19.1634 84.6218 18.5024C87.2518 17.84 89.6956 17.3921 90.9843 20.9009Z" fill="#34324C"/>
<path d="M72.4158 23.0445C73.3267 26.661 71.9344 30.138 69.3043 30.8004C66.6798 31.4615 63.8066 29.0587 62.8957 25.4423C61.9828 21.8176 63.3751 18.3405 65.9996 17.6795C68.6297 17.0171 71.5029 19.4198 72.4158 23.0445Z" fill="#34324C"/>
<path d="M66.638 46.6964L64.4885 50.2726C64.0926 50.9313 64.2269 51.7792 64.807 52.2833L67.3049 54.4541L64.7349 55.2839C63.7871 55.5899 63.3539 56.6847 64.4388 57.7026L71.0063 71.3754L72.427 46.6964H66.638Z" fill="#4C4EE1"/>
<path d="M88.1321 46.6964L90.2816 50.2726C90.6775 50.9313 90.5432 51.7792 89.9631 52.2833L87.4653 54.4541L90.0352 55.2839C90.983 55.5899 91.4163 56.6847 90.9345 57.5564L83.7518 71.2292L82.3431 46.6964H88.1321Z" fill="#4C4EE1"/>
<path d="M72.389 46.696H77.3859L71.9982 51.7567L72.389 46.696Z" fill="#C5DAF5"/>
<path d="M82.7157 51.7567L77.9021 47.4461L77.1035 46.696H82.3432L82.7157 51.7567Z" fill="#C5DAF5"/>
<path d="M82.3412 39.5029H72.4245V46.6981H82.3412V39.5029Z" fill="#FDC7B4"/>
<path d="M82.3412 39.5029V44.6587C78.8298 44.8239 75.541 43.9837 72.4245 42.3035V39.5029H82.3412Z" fill="#EFB5A3"/>
<path d="M87.0582 33.6612C88.3949 33.6612 89.4786 32.3969 89.4786 30.8373C89.4786 29.2777 88.3949 28.0134 87.0582 28.0134C85.7215 28.0134 84.6378 29.2777 84.6378 30.8373C84.6378 32.3969 85.7215 33.6612 87.0582 33.6612Z" fill="#FDC7B4"/>
<path d="M88.0273 32.2018C87.9454 32.2018 87.8646 32.1683 87.8057 32.1025C87.6984 31.9802 87.7099 31.7932 87.8311 31.6847C88.1012 31.4469 88.2501 31.1457 88.2501 30.8375C88.2501 30.5293 88.1012 30.2281 87.8311 29.9903C87.7099 29.8818 87.6984 29.6949 87.8057 29.5725C87.9142 29.4513 88.1 29.4386 88.2235 29.5471C88.6217 29.8991 88.841 30.3574 88.841 30.8375C88.841 31.3177 88.6217 31.7759 88.2235 32.1279C88.167 32.1775 88.0966 32.2018 88.0273 32.2018Z" fill="#EFB5A3"/>
<path d="M67.3805 33.6612C68.7172 33.6612 69.8009 32.3969 69.8009 30.8373C69.8009 29.2777 68.7172 28.0134 67.3805 28.0134C66.0438 28.0134 64.9601 29.2777 64.9601 30.8373C64.9601 32.3969 66.0438 33.6612 67.3805 33.6612Z" fill="#FDC7B4"/>
<path d="M66.4114 32.2018C66.4933 32.2018 66.5741 32.1683 66.633 32.1025C66.7403 31.9802 66.7288 31.7932 66.6076 31.6847C66.3375 31.4469 66.1886 31.1457 66.1886 30.8375C66.1886 30.5293 66.3375 30.2281 66.6076 29.9903C66.7288 29.8818 66.7403 29.6949 66.633 29.5725C66.5245 29.4513 66.3387 29.4386 66.2152 29.5471C65.817 29.8991 65.5977 30.3574 65.5977 30.8375C65.5977 31.3177 65.817 31.7759 66.2152 32.1279C66.2717 32.1775 66.3421 32.2018 66.4114 32.2018Z" fill="#EFB5A3"/>
<path d="M87.385 18.378V32.957C87.385 38.4823 82.9081 42.9593 77.3828 42.9593C71.8574 42.9593 67.3805 38.4823 67.3805 32.957V18.378C67.3805 18.0285 67.6634 17.7622 68.0129 17.7622H86.7526C87.1021 17.7622 87.385 18.0285 87.385 18.378Z" fill="#FDC7B4"/>
<path d="M91.131 21.4189C92.0418 25.0353 90.6495 28.5124 88.0194 29.1748C85.3949 29.8358 82.5217 27.4331 81.6109 23.8167C80.6979 20.192 82.0902 16.7149 84.7148 16.0539C87.3448 15.3915 90.218 17.7942 91.131 21.4189Z" fill="#34324C"/>
<path d="M76.4274 10.2015C82.2934 10.8214 86.6964 14.7848 86.2456 19.0509C85.7957 23.308 80.6615 26.2635 74.7955 25.6436C68.9161 25.0222 62.841 22.3018 63.2909 18.0447C63.7417 13.7787 70.548 9.58022 76.4274 10.2015Z" fill="#34324C"/>
<path d="M74.3421 30.1652C74.3421 30.8593 73.9612 31.418 73.4872 31.418C73.0132 31.418 72.6238 30.8593 72.6238 30.1652C72.6238 29.4711 73.0132 28.9041 73.4872 28.9041C73.9612 28.9041 74.3421 29.4711 74.3421 30.1652Z" fill="#333333"/>
<path d="M82.1463 30.1652C82.1463 30.8593 81.7654 31.418 81.2914 31.418C80.8174 31.418 80.428 30.8593 80.428 30.1652C80.428 29.4711 80.8174 28.9041 81.2914 28.9041C81.7654 28.9041 82.1463 29.4711 82.1463 30.1652Z" fill="#333333"/>
<path d="M106.133 91.0398V57.5315C106.133 51.5474 101.411 46.2151 95.2918 46.6897V91.0398H106.133Z" fill="#6B8AFF"/>
<path d="M95.8888 91.0399V71.5486C95.8888 71.2224 95.6245 70.9579 95.298 70.9579C94.9713 70.9579 94.707 71.2224 94.707 71.5486V91.0399H95.8888Z" fill="#4C4EE1"/>
<path d="M59.4724 91.0399V46.6965C53.4899 46.6985 48.6414 51.5488 48.6414 57.5316V91.0399H59.4724Z" fill="#6B8AFF"/>
<path d="M60.0632 91.0399V71.5486C60.0632 71.2224 59.7989 70.9579 59.4723 70.9579C59.1456 70.9579 58.8813 71.2224 58.8813 71.5486V91.0399H60.0632Z" fill="#4C4EE1"/>
<path d="M106.133 83.7627V85.9816C105.411 86.0653 104.721 86.1662 103.999 86.2335C102.167 86.4018 100.318 86.3849 98.5863 85.7628C97.2248 85.2757 96.0314 84.3508 95.2918 83.1074C95.2246 83.0232 95.191 82.9391 95.1238 82.855V75.9132C95.191 75.7786 95.2246 75.6609 95.2918 75.5435C95.3758 75.3416 95.3361 75.1906 95.4874 75.0728C96.6472 76.7537 99.9142 79.3927 101.528 80.6698C102.973 81.8295 104.537 82.8213 106.133 83.7627Z" fill="#4C4EE1"/>
<path d="M106.133 75.2116H83.6772V83.5486H106.133V75.2116Z" fill="#6B8AFF"/>
<path d="M48.6331 83.7627V85.9816C49.3558 86.0653 50.045 86.1662 50.7678 86.2335C52.5999 86.4018 54.4489 86.3849 56.1801 85.7628C57.5416 85.2757 58.735 84.3508 59.4746 83.1074C59.5418 83.0232 59.5755 82.9391 59.6427 82.855V75.9132C59.5755 75.7786 59.5418 75.6609 59.4746 75.5435C59.3906 75.3416 59.4303 75.1906 59.279 75.0728C58.1192 76.7537 54.8523 79.3927 53.2386 80.6698C51.7931 81.8295 50.2299 82.8213 48.6331 83.7627Z" fill="#4C4EE1"/>
<path d="M71.0893 75.2116H48.6331V83.5486H71.0893V75.2116Z" fill="#6B8AFF"/>
<path d="M80.181 83.5486H71.0875V75.2116H71.8439C73.3902 75.2116 74.8527 75.6318 76.0965 76.3881C76.7016 76.7242 77.2563 77.1613 77.7437 77.6488C79.2397 79.1614 80.181 81.2456 80.181 83.5486Z" fill="#FDC7B4"/>
<path d="M80.181 83.5486H73.0541V82.8428C73.0541 80.2374 74.2475 77.9176 76.0965 76.3881C76.7016 76.7242 77.2563 77.1613 77.7437 77.6488C79.2397 79.1614 80.181 81.2456 80.181 83.5486Z" fill="#EFB5A3"/>
<path d="M83.6772 83.5486H74.592C74.592 78.9442 78.3246 75.2116 82.929 75.2116H83.6772V83.5486Z" fill="#FDC7B4"/>
<path d="M141.667 84.665V87.9148C141.667 88.5123 141.194 88.9843 140.597 88.9843H9.38891C8.8056 88.9843 8.33334 88.5123 8.33334 87.9148V84.665C8.33334 84.0818 8.8056 83.6098 9.38891 83.6098H140.597C141.194 83.6098 141.667 84.0818 141.667 84.665Z" fill="#A06167"/>
<path d="M135.361 88.9843H14.5556V139.86H135.361V88.9843Z" fill="#894E57"/>
<g opacity="0.1">
<path d="M135.361 132.442H14.5556V138.582H135.361V132.442Z" fill="black"/>
</g>
<g opacity="0.1">
<path d="M135.361 88.9843H14.5556V91.0398H135.361V88.9843Z" fill="black"/>
</g>
<path d="M125.901 102.849H24.0914V118.662H125.901V102.849Z" fill="#A06167"/>
<path d="M141.667 135.541V138.79C141.667 139.388 141.194 139.86 140.597 139.86H9.38891C8.8056 139.86 8.33334 139.388 8.33334 138.79V135.541C8.33334 134.957 8.8056 134.485 9.38891 134.485H140.597C141.194 134.485 141.667 134.957 141.667 135.541Z" fill="#A06167"/>
<path d="M74.9399 38.7902C74.8484 38.7902 74.7568 38.7658 74.6734 38.717C74.4252 38.5684 74.3458 38.249 74.4923 38.0028C76.1626 35.2074 79.0761 35.6672 80.3802 36.2939C80.6386 36.42 80.7464 36.7292 80.6243 36.9876C80.5002 37.246 80.193 37.3559 79.9285 37.2338C79.8105 37.1768 76.9785 35.8748 75.3875 38.5359C75.2898 38.7007 75.1169 38.7902 74.9399 38.7902Z" fill="#EFB5A3"/>
<path d="M33.644 83.5426V78.8991H57.2246C60.0303 78.8991 62.3684 80.8941 62.9018 83.5426H33.644Z" fill="#373754"/>
<path d="M35.8808 51.536L40.8973 79.7346C41.2505 81.72 39.7237 83.5424 37.7071 83.5424H23.5669C21.9292 83.5424 20.5273 82.3678 20.2404 80.7555L15.2442 52.671C14.891 50.6856 16.4178 48.8632 18.4344 48.8632H32.6906C34.2612 48.8632 35.6057 49.9896 35.8808 51.536Z" fill="#34324C"/>
<path d="M28.5743 48.8708C30.1448 48.8708 31.4931 49.9971 31.7629 51.5359L36.7757 79.7413C37.1405 81.7242 35.6018 83.5486 33.5871 83.5486H37.7117C39.7263 83.5486 41.2493 81.7242 40.9002 79.7413L35.8874 51.5359C35.6018 49.9971 34.2534 48.8708 32.6829 48.8708H28.5743Z" fill="#373754"/>
<path d="M26.7837 72.2167C27.7202 71.9961 28.0649 70.0571 27.5535 67.8858C27.0421 65.7145 25.8684 64.1331 24.9319 64.3537C23.9953 64.5743 23.6507 66.5132 24.1621 68.6846C24.6734 70.8559 25.8472 72.4373 26.7837 72.2167Z" fill="#373754"/>
<path d="M114.958 38.2763L109.181 41.1653C108.708 41.4013 108.153 41.0541 108.153 40.5265V38.2763H114.958Z" fill="#E8EFFF"/>
</svg>
