<svg width="151" height="150" viewBox="0 0 151 150" fill="none" xmlns="http://www.w3.org/2000/svg">
<path d="M135.397 91.5914H47.2268C44.0183 91.5914 41.4172 88.9904 41.4172 85.7818V15.0562C41.4172 11.8476 44.0183 9.24658 47.2268 9.24658H135.397C138.606 9.24658 141.207 11.8476 141.207 15.0562V85.7818C141.207 88.9904 138.606 91.5914 135.397 91.5914Z" fill="#CEDEED"/>
<path d="M45.2203 86.0886V14.7499C45.2203 13.8112 45.9812 13.0502 46.9199 13.0502H135.704C136.643 13.0502 137.403 13.8112 137.403 14.7499V86.0886C137.403 87.0272 136.643 87.7882 135.704 87.7882H46.9199C45.9812 87.7882 45.2203 87.0272 45.2203 86.0886Z" fill="white"/>
<path d="M127.324 24.0692V37.1788C127.324 38.398 126.337 39.3842 125.118 39.3842H58.9675C57.7483 39.3842 56.7621 38.398 56.7621 37.1788V24.0692C56.7621 22.8637 57.7483 21.8774 58.9675 21.8774H125.118C126.337 21.8774 127.324 22.8637 127.324 24.0692Z" fill="#E8F2FB"/>
<path d="M127.324 46.4791C127.324 47.5703 126.446 48.4479 125.355 48.4479H58.7309C57.6396 48.4479 56.7621 47.5703 56.7621 46.4791C56.7621 45.489 57.5721 44.679 58.5734 44.679H125.512C126.514 44.679 127.324 45.489 127.324 46.4791Z" fill="#E8F2FB"/>
<path d="M127.324 54.7006C127.324 55.7919 126.446 56.6694 125.355 56.6694H58.7309C57.6396 56.6694 56.7621 55.7919 56.7621 54.7006C56.7621 53.7106 57.5721 52.9005 58.5734 52.9005H125.512C126.514 52.9005 127.324 53.7106 127.324 54.7006Z" fill="#E8F2FB"/>
<path d="M127.324 62.9222C127.324 64.0135 126.446 64.891 125.355 64.891H58.7309C57.6396 64.891 56.7621 64.0135 56.7621 62.9222C56.7621 61.9322 57.5721 61.1221 58.5734 61.1221H125.512C126.514 61.1221 127.324 61.9322 127.324 62.9222Z" fill="#E8F2FB"/>
<path d="M127.324 71.1438C127.324 72.2351 126.446 73.1127 125.355 73.1127H58.7309C57.6396 73.1127 56.7621 72.2351 56.7621 71.1438C56.7621 70.1538 57.5721 69.3438 58.5734 69.3438H125.512C126.514 69.3438 127.324 70.1538 127.324 71.1438Z" fill="#E8F2FB"/>
<path d="M52.9146 33.192C52.9146 33.192 49.0315 27.4874 41.6944 28.7353C34.3572 29.9832 31.3928 34.6859 30.3522 37.9916C20.2175 70.1855 41.8374 80.9393 43.2095 79.1166C44.5816 77.294 53.1662 75.5737 53.1662 75.5737C53.1662 75.5737 67.5468 78.0805 66.4595 55.8925C66.2262 51.1311 64.5064 29.221 52.9146 33.192Z" fill="#040516"/>
<path d="M67.983 71.9333H26.8723V122.398H67.983V71.9333Z" fill="url(#paint0_linear_77_11820)"/>
<path d="M26.8723 82.0814V110.157C34.1793 111.36 41.6889 111.373 48.9959 110.17C46.1338 108.84 43.2212 107.637 40.2452 106.586C39.0548 106.168 37.8137 105.75 36.8766 104.902C35.9015 104.04 35.3316 102.825 34.8124 101.634C33.7867 99.3423 32.8116 97.0374 31.8744 94.7198C31.064 92.7192 30.2788 90.7055 29.7216 88.616C29.2404 86.843 29.3417 84.9054 28.8858 83.1707C28.6072 82.1068 27.7334 81.8029 26.8723 82.0814Z" fill="#2A88DB"/>
<path d="M68.0279 122.398H26.9125V140.753H68.0279V122.398Z" fill="#10193F"/>
<path d="M44.3624 59.024C44.3599 59.083 44.3448 59.1385 44.3448 59.1981C44.3448 61.442 46.1638 63.261 48.4076 63.261C50.6515 63.261 52.4705 61.442 52.4705 59.1981C52.4705 59.1385 52.4554 59.083 52.4529 59.024H44.3624Z" fill="white"/>
<path d="M53.401 61.6199L53.4862 71.9337H41.5394L41.4542 61.6199H53.401Z" fill="#F7CAA6"/>
<path d="M53.401 71.9438L47.5128 82.2576L41.4542 71.9438H53.401Z" fill="#F7CAA6"/>
<path d="M53.401 61.6199V67.8312C49.1708 68.0301 45.2087 67.018 41.4542 64.9937V61.6199H53.401Z" fill="#E29A81"/>
<path d="M59.0836 54.5821C60.694 54.5821 61.9995 53.059 61.9995 51.1801C61.9995 49.3013 60.694 47.7781 59.0836 47.7781C57.4733 47.7781 56.1678 49.3013 56.1678 51.1801C56.1678 53.059 57.4733 54.5821 59.0836 54.5821Z" fill="#F7CAA6"/>
<path d="M60.2506 52.7139C60.1825 52.7139 60.1154 52.6861 60.0665 52.6315C59.9774 52.5299 59.986 52.3746 60.0876 52.2845C60.4375 51.9749 60.6301 51.5829 60.6301 51.1803C60.6301 50.7768 60.4375 50.3847 60.0886 50.0761C59.987 49.986 59.9774 49.8317 60.0665 49.7301C60.1566 49.6285 60.3129 49.6189 60.4126 49.708C60.8698 50.1116 61.1209 50.6339 61.1209 51.1803C61.1209 51.7257 60.8698 52.2481 60.4135 52.6526C60.3666 52.6938 60.3081 52.7139 60.2506 52.7139Z" fill="#E29A81"/>
<path d="M35.9493 54.5821C37.5597 54.5821 38.8652 53.059 38.8652 51.1801C38.8652 49.3013 37.5597 47.7781 35.9493 47.7781C34.3389 47.7781 33.0334 49.3013 33.0334 51.1801C33.0334 53.059 34.3389 54.5821 35.9493 54.5821Z" fill="#F7CAA6"/>
<path d="M34.7824 52.7139C34.8504 52.7139 34.9175 52.6861 34.9664 52.6315C35.0555 52.5299 35.0469 52.3746 34.9453 52.2845C34.5955 51.9749 34.4028 51.5829 34.4028 51.1803C34.4028 50.7768 34.5955 50.3847 34.9444 50.0761C35.046 49.986 35.0555 49.8317 34.9664 49.7301C34.8763 49.6285 34.7201 49.6189 34.6204 49.708C34.1632 50.1116 33.912 50.6339 33.912 51.1803C33.912 51.7257 34.1632 52.2481 34.6194 52.6526C34.6664 52.6938 34.7249 52.7139 34.7824 52.7139Z" fill="#E29A81"/>
<path d="M59.4759 47.4713V53.7338C59.4759 60.3912 54.0762 65.7785 47.4313 65.7785C40.7741 65.7785 35.3867 60.3912 35.3867 53.7338V47.4713C35.3867 40.8138 40.7741 35.4266 47.4313 35.4266C50.7599 35.4266 53.768 36.7702 55.9501 38.9523C58.1321 41.1344 59.4759 44.1424 59.4759 47.4713Z" fill="#F7CAA6"/>
<path d="M43.7643 50.3705C43.7643 51.2067 43.3054 51.8797 42.7344 51.8797C42.1634 51.8797 41.6943 51.2067 41.6943 50.3705C41.6943 49.5344 42.1634 48.8512 42.7344 48.8512C43.3054 48.8512 43.7643 49.5344 43.7643 50.3705Z" fill="#333333"/>
<path d="M53.1662 50.3705C53.1662 51.2067 52.7073 51.8797 52.1362 51.8797C51.5652 51.8797 51.0962 51.2067 51.0962 50.3705C51.0962 49.5344 51.5652 48.8512 52.1362 48.8512C52.7073 48.8512 53.1662 49.5344 53.1662 50.3705Z" fill="#333333"/>
<path d="M58.9682 43.9763C53.4335 42.379 52.5795 38.7941 52.468 37.655C57.1113 40.7004 40.8584 50.7624 35.3808 47.7902L32.7683 45.301L36.2971 37.9215L39.3431 34.566L49.0256 33.9717L52.4925 36.3737C52.4925 36.3737 55.0556 34.5292 55.2537 34.5292C55.4517 34.5292 59.674 37.971 60.0083 37.971C60.3302 37.971 65.2829 45.8088 58.9682 43.9763Z" fill="#040516"/>
<path d="M43.6673 56.9131C43.6651 56.9721 43.6516 57.0274 43.6516 57.087C43.6516 59.3268 45.2844 61.1425 47.2985 61.1425C49.3127 61.1425 50.9455 59.3268 50.9455 57.087C50.9455 57.0274 50.932 56.9721 50.9297 56.9131H43.6673Z" fill="white"/>
<path d="M36.4249 74.7448L23.9523 106.906C22.488 110.8 18.2391 112.808 14.4672 111.388C10.6731 109.956 8.8094 105.597 10.3181 101.692L19.4736 78.8605C20.2502 76.8636 21.9134 74.8634 23.4955 73.5771C25.4103 72.0204 26.6103 71.9716 26.9703 71.9437L36.4249 74.7448Z" fill="url(#paint1_linear_77_11820)"/>
<path d="M34.0073 101.547L38.4987 103.777L38.3671 102.08C38.9218 101.514 38.9995 100.627 38.5557 99.972C38.234 99.484 37.7015 99.2288 37.1579 99.2288C36.7585 99.2288 36.348 99.3729 36.0263 99.6725L34.0073 101.547Z" fill="#F7CAA6"/>
<path d="M58.9793 116.876H41.6652C40.6856 116.876 39.8531 116.197 39.7067 115.279L36.4475 94.8334C36.2664 93.6973 37.1941 92.6747 38.4059 92.6747H62.2385C63.4503 92.6747 64.378 93.6973 64.197 94.8334L60.9377 115.279C60.7913 116.197 59.9589 116.876 58.9793 116.876Z" fill="#CEDEED"/>
<path d="M9.82996 104.002C10.2332 99.9649 13.8518 97.031 17.8854 97.4713L34.0025 101.545V113.021L16.368 111.991C12.3565 111.591 9.42931 108.014 9.82996 104.002Z" fill="url(#paint2_linear_77_11820)"/>
<path d="M34.0073 101.547V113.018L42.494 112.885C44.6906 112.852 46.5321 111.221 46.8427 109.058C46.876 108.847 46.8871 108.647 46.8871 108.448C46.8871 106.085 45.0123 104.077 42.5938 103.988L38.4987 103.777" fill="#F7CAA6"/>
<path d="M96.6744 82.0836L77.0909 100.71C75.1182 102.121 72.4744 102.121 70.5018 100.71L69.1868 99.7652L67.9813 98.9022L64.7347 96.5734L67.9813 71.9296C70.6662 71.9296 73.1731 73.2583 74.68 75.4775L78.269 80.7652L90.8087 73.973L96.6744 82.0836Z" fill="url(#paint3_linear_77_11820)"/>
<path d="M69.1867 83.5872V99.7652L67.9813 98.9022V83.5872H69.1867Z" fill="#2A88DB"/>
<path d="M109.863 60.1424L91.7957 87.7512C91.3256 88.4695 90.3561 88.672 89.6377 88.2019C88.9194 87.7318 88.7169 86.7623 89.187 86.044L107.254 58.4352C107.724 57.717 108.694 57.5143 109.412 57.9844C110.131 58.4545 110.333 59.4242 109.863 60.1424Z" fill="#4E6A80"/>
<path d="M90.8087 73.9731L96.1616 68.1785C96.7506 67.6934 97.5548 67.5622 98.2674 67.8349L101.073 68.7281C102.156 69.1428 102.752 70.3085 102.453 71.4295C102.178 72.4609 101.364 72.8615 100.298 72.8105L98.4236 71.9296L94.1043 78.5299L90.8087 73.9731Z" fill="#F7CAA6"/>
<path d="M97.4446 82.5917L97.1867 82.4816C95.0505 81.5699 94.0579 79.0991 94.9696 76.9629C95.8813 74.8267 98.3521 73.8341 100.488 74.7458L100.746 74.8559C101.13 75.0198 101.309 75.4642 101.145 75.8484L98.4371 82.1929C98.2731 82.5771 97.8288 82.7557 97.4446 82.5917Z" fill="#F7CAA6"/>
<defs>
<linearGradient id="paint0_linear_77_11820" x1="47.4276" y1="71.9333" x2="47.4276" y2="122.398" gradientUnits="userSpaceOnUse">
<stop stop-color="#2E94FF"/>
<stop offset="1" stop-color="#2ED9FF"/>
</linearGradient>
<linearGradient id="paint1_linear_77_11820" x1="23.1097" y1="71.9437" x2="23.1097" y2="111.843" gradientUnits="userSpaceOnUse">
<stop stop-color="#2E94FF"/>
<stop offset="1" stop-color="#2ED9FF"/>
</linearGradient>
<linearGradient id="paint2_linear_77_11820" x1="21.8979" y1="97.4276" x2="21.8979" y2="113.021" gradientUnits="userSpaceOnUse">
<stop stop-color="#2E94FF"/>
<stop offset="1" stop-color="#2ED9FF"/>
</linearGradient>
<linearGradient id="paint3_linear_77_11820" x1="80.7046" y1="71.9296" x2="80.7046" y2="101.769" gradientUnits="userSpaceOnUse">
<stop stop-color="#2E94FF"/>
<stop offset="1" stop-color="#2ED9FF"/>
</linearGradient>
</defs>
</svg>
