<svg width="151" height="150" viewBox="0 0 151 150" fill="none" xmlns="http://www.w3.org/2000/svg">
<path d="M138.912 102.206H12.0879C10.2905 102.206 8.83334 100.749 8.83334 98.9514V11.9323C8.83334 10.1349 10.2905 8.67773 12.0879 8.67773H138.912C140.71 8.67773 142.167 10.1349 142.167 11.9323V98.9514C142.167 100.749 140.71 102.206 138.912 102.206Z" fill="#E8EFFF"/>
<path d="M138 98.0388L138 12.845L12.9994 12.845L12.9994 98.0388L138 98.0388Z" fill="white"/>
<path d="M122.399 20.4416C123.392 20.4416 124.197 19.6367 124.197 18.6437C124.197 17.6507 123.392 16.8458 122.399 16.8458C121.406 16.8458 120.601 17.6507 120.601 18.6437C120.601 19.6367 121.406 20.4416 122.399 20.4416Z" fill="#FF7581"/>
<path d="M127.461 20.4416C128.454 20.4416 129.259 19.6367 129.259 18.6437C129.259 17.6507 128.454 16.8458 127.461 16.8458C126.468 16.8458 125.663 17.6507 125.663 18.6437C125.663 19.6367 126.468 20.4416 127.461 20.4416Z" fill="#FDDF8C"/>
<path d="M132.523 20.4416C133.516 20.4416 134.321 19.6367 134.321 18.6437C134.321 17.6507 133.516 16.8458 132.523 16.8458C131.53 16.8458 130.725 17.6507 130.725 18.6437C130.725 19.6367 131.53 20.4416 132.523 20.4416Z" fill="#98A2F5"/>
<path d="M123.789 28.2253V47.3084C123.789 48.8349 122.552 50.0724 121.025 50.0724H29.9747C28.4482 50.0724 27.2107 48.8349 27.2107 47.3084V28.2253C27.2107 26.6988 28.4482 25.4613 29.9747 25.4613H121.025C122.552 25.4613 123.789 26.6988 123.789 28.2253Z" fill="#BDC8FF"/>
<path d="M127.197 59.8326H23.8031V62.3673H127.197V59.8326Z" fill="#E8EFFF"/>
<path d="M127.197 68.0077H23.8031V70.5425H127.197V68.0077Z" fill="#E8EFFF"/>
<path d="M127.197 76.1828H23.8031V78.7176H127.197V76.1828Z" fill="#E8EFFF"/>
<path d="M127.197 84.358H23.8031V86.8927H127.197V84.358Z" fill="#E8EFFF"/>
<path d="M67.404 64.2832C67.404 64.2832 68.5366 64.1635 68.9108 64.2108C72.3516 64.6455 79.3653 67.4372 82.4782 67.1059C87.8266 66.5368 98.8882 61.1121 98.8882 61.1121L103.555 71.6902C103.555 71.6902 90.4919 81.1498 83.9981 82.4942C78.5978 83.6122 62.1313 79.5877 62.1313 79.5877L67.404 64.2832Z" fill="#FDDF8C"/>
<path d="M62.1284 79.5947C62.1284 79.5947 78.6056 83.6114 83.9996 82.4966C90.4922 81.1521 103.561 71.6826 103.561 71.6826L102.217 69.2886C97.9867 72.1413 89.41 78.0696 83.9996 79.1848C79.4418 80.1354 66.9322 77.3811 63.1941 76.5121L62.1284 79.5947Z" fill="#F2CF77"/>
<path d="M67.6747 127.647L67.5871 114.482H46.5985V127.647H67.6747Z" fill="#34324C"/>
<path d="M46.6179 112.577H34.2669V127.647H46.6179V112.577Z" fill="#34324C"/>
<path d="M29.6397 34.0413C28.3302 37.6066 30.9988 45.4938 34.5423 47.1383C37.2573 48.3982 40.6223 45.2121 41.6296 41.2127C42.6392 37.2041 41.0994 33.3588 38.197 32.6278C35.2884 31.8952 31.065 30.1609 29.6397 34.0413Z" fill="#34324C"/>
<path d="M51.6956 37.651C50.6883 41.6504 52.228 45.4957 55.1366 46.2283C58.0391 46.9593 61.2166 44.3021 62.2239 40.3027C63.2335 36.2941 61.6938 32.4488 58.7913 31.7178C55.8827 30.9852 52.7052 33.6424 51.6956 37.651Z" fill="#34324C"/>
<path d="M34.2669 111.132V112.467H67.7186L67.404 64.2831L27.6159 63.8058L25.6228 111.132H34.2669Z" fill="#FDDF8C"/>
<path d="M25.5609 110.52V111.132H34.2669V114.443H67.7292V110.52H25.5609Z" fill="black"/>
<path d="M40.9381 99.2738L46.2509 104.412L51.5556 99.2738L47.585 65.4885H44.9088L40.9381 99.2738Z" fill="#FF7581"/>
<path d="M46.2509 104.412L42.4549 98.1938L46.2509 65.4885H44.9088L40.9381 99.2738L46.2509 104.412Z" fill="#F26678"/>
<path d="M40.9807 63.8398L46.1789 69.0381L51.3772 63.8398H40.9807Z" fill="#FF7581"/>
<path d="M51.7253 63.8073H46.1992L52.1575 67.1059L51.7253 63.8073Z" fill="#F2CF77"/>
<path d="M40.2409 67.1059L45.316 64.2962L46.1992 63.8073H40.6788L40.2409 67.1059Z" fill="#F2CF77"/>
<path d="M51.686 55.8524H40.719V63.8096H51.686V55.8524Z" fill="#FDC7B4"/>
<path d="M40.719 55.8524V61.5543C44.6023 61.7369 48.2394 60.8078 51.686 58.9495V55.8524H40.719Z" fill="#EFB5A3"/>
<path d="M35.5025 49.3919C36.9808 49.3919 38.1792 47.9937 38.1792 46.269C38.1792 44.5442 36.9808 43.146 35.5025 43.146C34.0242 43.146 32.8258 44.5442 32.8258 46.269C32.8258 47.9937 34.0242 49.3919 35.5025 49.3919Z" fill="#FDC7B4"/>
<path d="M34.4313 47.6769C34.4938 47.6769 34.5554 47.6514 34.6003 47.6013C34.6821 47.508 34.6742 47.3655 34.5809 47.2828C34.2597 46.9986 34.0829 46.6387 34.0829 46.2691C34.0829 45.8987 34.2597 45.5388 34.58 45.2555C34.6733 45.1728 34.6821 45.0311 34.6003 44.9379C34.5176 44.8446 34.3741 44.8358 34.2826 44.9176C33.8629 45.2881 33.6324 45.7676 33.6324 46.2691C33.6324 46.7698 33.8629 47.2493 34.2817 47.6206C34.3249 47.6585 34.3785 47.6769 34.4313 47.6769Z" fill="#EFB5A3"/>
<path d="M56.7393 49.3919C58.2176 49.3919 59.416 47.9937 59.416 46.269C59.416 44.5442 58.2176 43.146 56.7393 43.146C55.261 43.146 54.0626 44.5442 54.0626 46.269C54.0626 47.9937 55.261 49.3919 56.7393 49.3919Z" fill="#FDC7B4"/>
<path d="M57.8105 47.6769C57.7481 47.6769 57.6865 47.6514 57.6416 47.6013C57.5598 47.508 57.5677 47.3655 57.661 47.2828C57.9821 46.9986 58.159 46.6387 58.159 46.2691C58.159 45.8987 57.9821 45.5388 57.6618 45.2555C57.5686 45.1728 57.5598 45.0311 57.6416 44.9379C57.7243 44.8446 57.8677 44.8358 57.9592 44.9176C58.3789 45.2881 58.6095 45.7676 58.6095 46.2691C58.6095 46.7698 58.3789 47.2493 57.9601 47.6206C57.917 47.6585 57.8633 47.6769 57.8105 47.6769Z" fill="#EFB5A3"/>
<path d="M35.1519 42.8643V48.6178C35.1519 54.719 40.0897 59.6769 46.1903 59.6769C52.3114 59.6769 57.2491 54.719 57.2491 48.6178V42.8643C57.2491 36.7433 52.3114 31.8052 46.1903 31.8052C43.1502 31.8052 40.3752 33.0501 38.3757 35.0496C36.3762 37.0491 35.1519 39.8038 35.1519 42.8643Z" fill="#FDC7B4"/>
<path d="M49.5654 45.5258C49.5654 46.2934 49.9866 46.9112 50.5108 46.9112C51.035 46.9112 51.4655 46.2934 51.4655 45.5258C51.4655 44.7582 51.035 44.131 50.5108 44.131C49.9866 44.131 49.5654 44.7582 49.5654 45.5258Z" fill="#333333"/>
<path d="M40.9346 45.5258C40.9346 46.2934 41.3559 46.9112 41.8801 46.9112C42.4043 46.9112 42.8348 46.2934 42.8348 45.5258C42.8348 44.7582 42.4043 44.131 41.8801 44.131C41.3559 44.131 40.9346 44.7582 40.9346 45.5258Z" fill="#333333"/>
<path d="M50.0579 51.4927C50.0603 51.5491 50.0747 51.6019 50.0747 51.6588C50.0747 53.7993 48.3396 55.5344 46.1992 55.5344C44.0588 55.5344 42.3237 53.7993 42.3237 51.6588C42.3237 51.6019 42.338 51.5491 42.3404 51.4927H50.0579Z" fill="white"/>
<path d="M47.4422 115.388H44.7363C43.2999 115.388 42.1301 114.218 42.1301 112.782V112.349C42.1301 110.912 43.2999 109.742 44.7363 109.742H47.4422C48.8785 109.742 50.0484 110.912 50.0484 112.349V112.782C50.0484 114.218 48.8785 115.388 47.4422 115.388ZM44.7363 110.784C43.8736 110.784 43.1717 111.486 43.1717 112.349V112.782C43.1717 113.645 43.8736 114.347 44.7363 114.347H47.4422C48.3048 114.347 49.0067 113.645 49.0067 112.782V112.349C49.0067 111.486 48.3048 110.784 47.4422 110.784H44.7363Z" fill="#DDEAF7"/>
<path d="M61.2952 34.0731C61.2952 26.9654 59.382 22.8978 51.0057 22.8978C42.6295 22.8978 35.8392 28.6597 35.8392 35.7674C35.8392 42.8751 61.2952 41.1808 61.2952 34.0731Z" fill="#34324C"/>
<path d="M45.6108 29.8025C41.7057 25.8973 35.6309 25.6322 32.0525 29.2107C28.474 32.7892 28.7463 38.8567 32.6515 42.7618C36.5566 46.6669 49.5159 33.7076 45.6108 29.8025Z" fill="#34324C"/>
<path d="M52.5719 31.8471C52.5719 31.8471 58.2343 24.3933 60.7151 25.5939C60.7151 25.5939 59.4028 27.3165 59.7023 28.5081C59.7023 28.5081 62.021 26.0511 64.95 28.1272C64.95 28.1272 61.7696 30.9613 61.1116 33.6858L52.5719 31.8471Z" fill="#34324C"/>
<path d="M25.8789 111.132L27.611 63.8123C25.0401 63.8123 22.714 64.8524 21.0409 66.5256C19.3679 68.2192 18.3272 70.5251 18.3272 73.0955L16.6567 111.132H25.8789Z" fill="#FDDF8C"/>
<path d="M25.5609 110.52H27.611L29.6513 78.8998H27.611L25.5609 110.52Z" fill="#F2CF77"/>
<path d="M98.8818 61.283L103.519 71.607L106.873 69.5136C107.868 68.8925 108.207 67.6035 107.646 66.5733L104.671 61.112L109.085 56.7633C109.546 56.3098 109.614 55.5912 109.247 55.0591C108.794 54.4023 107.869 54.2883 107.271 54.8156L102.374 59.1283L102.223 57.4752C102.158 56.7651 101.626 56.1863 100.924 56.0622C99.987 55.8967 99.1172 56.5899 99.0695 57.54L98.8818 61.283Z" fill="#FDC7B4"/>
<path d="M73.9468 105.104L73.4823 114.827L71.9384 141.322H18.1257L16.5817 114.827L16.1172 105.104H73.9468Z" fill="#A06167"/>
<path d="M73.9468 105.104L73.4823 114.827H16.5817L16.1172 105.104H73.9468Z" fill="#894E57"/>
<path d="M77.7502 97.7985V108.969C77.7502 110.139 76.7585 111.08 75.541 111.08H14.5105C13.3055 111.08 12.3138 110.139 12.3138 108.969V97.7985C12.3138 96.6283 13.3055 95.6874 14.5105 95.6874H75.541C76.7585 95.6874 77.7502 96.6283 77.7502 97.7985Z" fill="#A06167"/>
</svg>
