<svg width="150" height="150" viewBox="0 0 150 150" fill="none" xmlns="http://www.w3.org/2000/svg">
<path d="M9.84289 82.1535L16.882 89.2663L24.0251 80.4604L22.5468 74.2595C22.3416 73.3988 21.4543 72.8883 20.6071 73.1434C19.8161 73.3816 19.3545 74.2021 19.5616 75.0018L20.2623 77.7069L17.1793 74.7284C15.1688 72.7859 11.9848 72.7725 9.95795 74.698C7.83777 76.7121 7.78587 80.0749 9.84289 82.1535Z" fill="#FDC7B4"/>
<path d="M24.4295 76.8933L14.9058 89.444C14.9058 89.444 28.2842 101.966 33.2492 105.5C33.2488 105.5 33.2495 105.5 33.2492 105.5C37.0227 107.122 48.9764 110.259 48.9764 110.259L48.9365 99.4287L48.9099 92.9442C48.9099 92.9442 42.3987 90.7013 40.4212 89.5566C36.0077 87.0018 24.4295 76.8933 24.4295 76.8933Z" fill="#FF7581"/>
<path d="M140.157 82.1535L133.118 89.2663L125.975 80.4604L127.453 74.2595C127.658 73.3988 128.546 72.8883 129.393 73.1434C130.184 73.3816 130.646 74.2021 130.438 75.0018L129.738 77.7069L132.821 74.7284C134.831 72.7859 138.015 72.7725 140.042 74.698C142.162 76.7121 142.214 80.0749 140.157 82.1535Z" fill="#FDC7B4"/>
<path d="M125.57 76.8933L135.094 89.444C135.094 89.444 121.716 101.966 116.751 105.5C116.75 105.5 116.751 105.5 116.751 105.5C112.977 107.122 101.024 110.259 101.024 110.259L101.063 99.4287L101.09 92.9442C101.09 92.9442 107.601 90.7013 109.579 89.5566C113.992 87.0018 125.57 76.8933 125.57 76.8933Z" fill="#FF7581"/>
<path d="M100.926 141.587L101.015 110.264L101.09 92.9402H48.8168L48.9764 141.587H100.926Z" fill="#FF7581"/>
<path d="M86.9647 92.9405L78.0377 108.127L76.9465 109.976L75.4158 112.583L72.9908 108.385L64.079 92.9405H86.9647Z" fill="#E8EFFF"/>
<path d="M78.0377 108.127L76.9465 109.976L75.4158 112.583L72.9908 108.385L74.0366 99.5637L74.2487 97.7146H76.8101L77.0375 99.685L78.0377 108.127Z" fill="#FF7581"/>
<path d="M78.0378 108.127L76.9466 109.976L75.8856 100.837L75.5219 97.7146H76.8101L77.0375 99.685L78.0378 108.127Z" fill="#F26678"/>
<path d="M80.5936 96.125L75.5947 101.124L70.5959 96.125H80.5936Z" fill="#FF7581"/>
<path d="M81.3969 84.2908H69.4772V92.9393H81.3969V84.2908Z" fill="#FDC7B4"/>
<path d="M81.4024 92.9405L75.4309 96.125L69.4746 92.9405H81.4024Z" fill="#FDC7B4"/>
<path d="M81.3969 84.2908V90.488C77.1762 90.6865 73.2231 89.6767 69.4772 87.657V84.2908H81.3969Z" fill="#EFB5A3"/>
<path d="M63.279 78.1075C64.9258 78.1075 66.2607 76.55 66.2607 74.6288C66.2607 72.7075 64.9258 71.15 63.279 71.15C61.6323 71.15 60.2974 72.7075 60.2974 74.6288C60.2974 76.55 61.6323 78.1075 63.279 78.1075Z" fill="#FDC7B4"/>
<path d="M86.9355 78.1075C88.5822 78.1075 89.9172 76.55 89.9172 74.6288C89.9172 72.7075 88.5822 71.15 86.9355 71.15C85.2888 71.15 83.9538 72.7075 83.9538 74.6288C83.9538 76.55 85.2888 78.1075 86.9355 78.1075Z" fill="#FDC7B4"/>
<path d="M62.8779 70.8361V77.24C62.8779 84.0477 68.3995 89.5565 75.1944 89.5565C82.0018 89.5565 87.5109 84.0477 87.5109 77.24V70.8361C87.5109 64.0285 82.0018 58.5196 75.1944 58.5196C71.7906 58.5196 68.7147 59.8935 66.4833 62.1249C64.252 64.3562 62.8779 67.4321 62.8779 70.8361Z" fill="#FDC7B4"/>
<path d="M78.9442 73.8009C78.9442 74.6559 79.4134 75.3442 79.9973 75.3442C80.5812 75.3442 81.0608 74.6559 81.0608 73.8009C81.0608 72.9459 80.5812 72.2473 79.9973 72.2473C79.4134 72.2473 78.9442 72.9459 78.9442 73.8009Z" fill="#333333"/>
<path d="M69.3301 73.8009C69.3301 74.6559 69.7993 75.3442 70.3832 75.3442C70.9672 75.3442 71.4468 74.6559 71.4468 73.8009C71.4468 72.9459 70.9672 72.2473 70.3832 72.2473C69.7993 72.2473 69.3301 72.9459 69.3301 73.8009Z" fill="#333333"/>
<path d="M79.4928 80.4477C79.4955 80.5104 79.5115 80.5693 79.5115 80.6327C79.5115 83.017 77.5787 84.9498 75.1945 84.9498C72.8102 84.9498 70.8774 83.017 70.8774 80.6327C70.8774 80.5693 70.8934 80.5104 70.8961 80.4477H79.4928Z" fill="white"/>
<path d="M62.883 71.1516V73.0634C63.8445 73.1932 64.698 72.4156 64.6656 71.4428L64.644 70.3303C64.644 70.3303 65.854 69.6498 65.9621 68.1263C66.0701 66.6028 65.6811 63.0056 65.6811 63.0056C65.6811 63.0056 78.3583 66.3577 84.1274 63.1277C84.1274 63.1277 84.2094 67.7264 85.6571 69.6498L85.7327 71.3569C85.7651 72.3074 86.5538 73.0634 87.5153 73.0634V70.8383C87.5153 70.8383 90.8105 66.711 90.3675 59.9265C89.9354 53.1415 85.7976 48.302 85.7976 48.302C85.7976 48.302 84.5011 53.1848 83.0102 53.1093C83.0102 53.1093 83.9501 51.4998 83.7665 49.8033C83.7665 49.8033 81.4545 52.6556 79.7259 52.4721C79.7259 52.4721 64.2659 49.4146 62.883 58.2843C62.883 58.2843 60.3434 58.355 59.5655 61.3798C59.0145 63.5517 61.9971 68.4613 62.883 71.1516Z" fill="#34324C"/>
<path d="M62.1486 76.2603C62.2246 76.2603 62.2995 76.2292 62.3541 76.1682C62.4536 76.0548 62.4439 75.8815 62.3305 75.7809C61.94 75.4353 61.7249 74.9976 61.7249 74.5482C61.7249 74.0977 61.94 73.6601 62.3295 73.3155C62.4429 73.2149 62.4536 73.0427 62.3541 72.9293C62.2535 72.8158 62.0791 72.8051 61.9678 72.9046C61.4574 73.3551 61.177 73.9383 61.177 74.5482C61.177 75.1571 61.4574 75.7402 61.9667 76.1918C62.0191 76.2378 62.0844 76.2603 62.1486 76.2603Z" fill="#EFB5A3"/>
<path d="M84.5852 92.9405L79.2654 98.8665L75.4309 96.1232L81.4025 89.4243L84.5852 92.9405Z" fill="#BDC8FF"/>
<path d="M66.2842 92.9405L71.6041 98.8665L75.4385 96.1232L69.467 89.4243L66.2842 92.9405Z" fill="#BDC8FF"/>
<path d="M93.1816 15.5123L91.1878 18.5574L86.3901 20.388L84.936 18.5574C84.936 18.5574 86.6467 15.4095 86.681 15.4095C86.7322 15.4095 93.1816 15.5123 93.1816 15.5123Z" fill="#BDC8FF"/>
<path d="M89.3325 13.8701L81.8738 28.2399L67.5381 37.8029L54.8105 30.1389L65.8958 21.3799L68.0171 19.0022L74.5006 8.41302L89.3325 13.8701Z" fill="#98A2F5"/>
<path d="M68.7908 36.9762L75.9428 41.7235L79.6581 29.7145L68.7908 36.9762Z" fill="#E8EFFF"/>
<path d="M79.6581 29.7145L81.4986 40.7431L76.866 38.7396L79.6581 29.7145Z" fill="#BDC8FF"/>
<path d="M81.1826 38.6582L85.8359 39.2832L80.9655 28.8408L79.6581 29.7146C79.9159 33.0429 80.3262 36.1602 81.1826 38.6582Z" fill="#E8EFFF"/>
<path d="M84.4298 36.2685L87.8317 35.9395L81.8729 28.2346L80.9655 28.8409" fill="#BDC8FF"/>
<path d="M86.9998 30.0388L92.4456 29.2837L83.0424 25.982L86.9998 30.0388Z" fill="#BDC8FF"/>
<path d="M88.3744 27.8826L92.586 25.4128L84.6399 22.905L83.0424 25.982L88.3744 27.8826Z" fill="#E8EFFF"/>
<path d="M85.2412 21.747H93.1831L89.3296 24.3851L84.64 22.905L85.2412 21.747Z" fill="#BDC8FF"/>
<path d="M86.7042 18.9293C86.746 18.8487 93.4227 18.4584 93.4227 18.4584L90.53 21.747H85.2412L86.7042 18.9293Z" fill="#E8EFFF"/>
<path d="M90.205 33.3206L86.4586 34.176L81.8738 28.2399L83.0372 25.9816L90.205 33.3206Z" fill="#E8EFFF"/>
<path d="M83.0371 25.9816L81.8738 28.2399L65.8958 21.3799L68.0171 19.0022L83.0371 25.9816Z" fill="#6675E9"/>
<path d="M129.972 29.4976L126.871 28.6724L127.181 25.0683L122.654 29.5916L120.98 26.0445L119.172 29.3148L113.096 37.6475L111.634 41.0545L112.343 43.0512L113.362 43.8042L114.425 44.2028L116.019 43.0069L118.013 41.2352L125.409 34.6356L129.972 29.4976Z" fill="#E8EFFF"/>
<path d="M126.871 28.6724L122.28 34.1149L127.181 25.0683L126.871 28.6724Z" fill="#BDC8FF"/>
<path d="M122.654 29.5916L119.049 35.7439L121.84 27.809L122.654 29.5916Z" fill="#BDC8FF"/>
<path d="M140.86 53.4289L126.729 64.3149C126.039 64.8672 125.187 65.1897 124.29 65.2589L123.875 65.2813C122.655 65.3735 121.482 64.6835 120.975 63.5552L111.309 42.658L112.276 41.9905C112.437 42.4277 112.736 42.8193 113.15 43.0491C113.933 43.5329 114.946 43.4408 115.613 42.8193L128.064 31.2658L131.516 28.9182L131.723 29.4475L140.86 53.4289Z" fill="#FDDF8C"/>
<path d="M131.723 29.4475C131.7 29.4705 131.7 29.4705 131.677 29.4936L116.395 43.6475C115.797 44.2229 115.014 44.4993 114.209 44.4993C113.634 44.4993 113.058 44.3611 112.552 44.0386C112 43.7166 111.562 43.2334 111.309 42.658C111.217 42.4507 111.148 42.2439 111.102 42.0366C110.895 41.2078 111.033 40.3335 111.493 39.6199L118.421 28.3659C118.582 28.0894 118.927 28.0203 119.203 28.1816C119.479 28.3428 119.549 28.7109 119.387 28.9643L112.46 40.2183C112.161 40.6785 112.092 41.2314 112.207 41.7832C112.23 41.8523 112.253 41.9214 112.276 41.9905C112.437 42.4277 112.736 42.8193 113.15 43.0491C113.933 43.5329 114.946 43.4407 115.613 42.8193L128.064 31.2658L130.895 28.6417C131.125 28.435 131.493 28.435 131.7 28.6878C131.908 28.8952 131.908 29.2402 131.723 29.4475Z" fill="#F2CF77"/>
<path d="M39.5836 58.3797L24.4204 61.7732C24.4204 61.7732 14.6455 50.2801 9.71494 48.3372L20.1461 34.9094C20.1461 34.9094 20.431 35.1342 20.9232 35.54L20.9492 35.5659C24.0578 38.1737 35.4301 48.173 39.5836 58.3797Z" fill="#FF7581"/>
<path d="M39.5841 58.377L44.2367 59.0509L28.1972 62.3472L24.4169 61.7703L39.5841 58.377Z" fill="#F26678"/>
<path d="M50.072 36.4243L50.0305 36.4937C50.0443 36.4659 50.0443 36.4521 50.0443 36.4521C50.0581 36.4385 50.072 36.4243 50.072 36.4243Z" fill="#E8EFFF"/>
<path d="M53.6903 38.6704C50.1413 42.6073 44.2356 59.0493 44.2356 59.0493L39.5775 58.3701C39.5775 58.3701 28.4868 41.0271 20.9175 35.5373L22.7752 33.4439L23.0802 33.4161L23.7456 33.3468L24.7992 33.2361L25.2151 33.1944L25.5617 33.1528L25.9222 33.1251L26.1717 33.0973L26.8926 33.0279L28.7641 32.834C37.5257 39.1557 42.3086 55.3896 42.3086 55.3896C42.7661 50.8146 48.4778 39.5023 49.8086 36.9513C49.4066 37.8662 49.0184 39.017 48.9768 39.1693L50.7929 36.8542L49.8225 40.0428L51.4029 37.4228L53.6903 38.6704Z" fill="#E8EFFF"/>
<path d="M36.8041 42.5851L50.0493 36.4466L42.3036 55.3919L36.8041 42.5851Z" fill="#BDC8FF"/>
<path d="M51.4029 37.4228L47.23 47.0022L49.8225 40.0428L51.4029 37.4228Z" fill="#BDC8FF"/>
<path d="M33.5609 40.3339C33.242 39.9734 28.5562 34.8163 26.5183 33.4439C26.2826 33.2773 26.0747 33.1667 25.9222 33.125L26.1717 33.0973L26.8926 33.0279C26.8926 33.0279 31.509 36.8681 33.5609 40.3339Z" fill="#BDC8FF"/>
<path d="M29.9563 37.7278C29.7346 37.4918 27.5858 35.1213 25.5617 33.1528L25.9222 33.125L26.1717 33.0973L26.5183 33.4439C27.766 34.7192 29.083 36.2582 29.9563 37.7278Z" fill="#BDC8FF"/>
<path d="M29.3048 39.6824C29.0137 39.3635 25.34 35.3156 23.0802 33.4161L23.7456 33.3467C25.2429 34.7057 27.8908 37.284 29.3048 39.6824Z" fill="#BDC8FF"/>
<path d="M26.6569 35.0657C26.5322 34.9412 25.7974 34.2064 24.7993 33.236L25.2151 33.1944C25.7558 33.8043 26.2549 34.442 26.6569 35.0657Z" fill="#BDC8FF"/>
</svg>
