<svg width="64" height="64" viewBox="0 0 64 64" fill="none" xmlns="http://www.w3.org/2000/svg">
<path d="M53.3333 37.5787V22.6667C53.3333 20.8986 52.6309 19.2029 51.3807 17.9526C50.1305 16.7024 48.4348 16 46.6667 16H17.3333C15.5652 16 13.8695 16.7024 12.6193 17.9526C11.369 19.2029 10.6667 20.8986 10.6667 22.6667V46.6667C10.6667 48.4348 11.369 50.1305 12.6193 51.3807C13.8695 52.631 15.5652 53.3333 17.3333 53.3333H36.176L36.7653 54.2187C37.1306 54.7666 37.6254 55.2158 38.206 55.5266C38.7865 55.8373 39.4348 56 40.0933 56H52C53.0609 56 54.0783 55.5786 54.8284 54.8284C55.5786 54.0783 56 53.0609 56 52V41.3333C55.9966 40.509 55.7385 39.7058 55.2612 39.0337C54.7839 38.3616 54.1105 37.8534 53.3333 37.5787ZM13.3333 22.6667C13.3333 21.6058 13.7547 20.5884 14.5049 19.8382C15.255 19.0881 16.2725 18.6667 17.3333 18.6667H46.6667C47.7275 18.6667 48.7449 19.0881 49.4951 19.8382C50.2452 20.5884 50.6667 21.6058 50.6667 22.6667V37.3333H40.0933C39.814 37.3384 39.5359 37.3732 39.264 37.4373L29.4987 29.624C28.3193 28.6715 26.8492 28.152 25.3333 28.152C23.8174 28.152 22.3473 28.6715 21.168 29.624L13.3333 35.8907V22.6667ZM17.3333 50.6667C16.2725 50.6667 15.255 50.2452 14.5049 49.4951C13.7547 48.7449 13.3333 47.7275 13.3333 46.6667V39.3093L22.8347 31.7093C23.5412 31.136 24.4234 30.823 25.3333 30.823C26.2432 30.823 27.1255 31.136 27.832 31.7093L36.8987 38.96C36.3973 39.6373 34.3093 42.8107 33.2107 44.448C32.7727 45.105 32.5389 45.877 32.5389 46.6667C32.5389 47.4563 32.7727 48.2283 33.2107 48.8853L34.4 50.6667H17.3333ZM53.3333 52C53.3333 52.3536 53.1928 52.6928 52.9428 52.9428C52.6927 53.1929 52.3536 53.3333 52 53.3333H40.0933C39.8737 53.3332 39.6576 53.2789 39.4641 53.1751C39.2705 53.0714 39.1056 52.9215 38.984 52.7387L35.4293 47.4053C35.2837 47.1865 35.206 46.9295 35.206 46.6667C35.206 46.4038 35.2837 46.1468 35.4293 45.928L38.984 40.5947C39.1056 40.4119 39.2705 40.2619 39.4641 40.1582C39.6576 40.0545 39.8737 40.0001 40.0933 40H52C52.3536 40 52.6927 40.1405 52.9428 40.3905C53.1928 40.6406 53.3333 40.9797 53.3333 41.3333V52ZM42.6667 32C43.7215 32 44.7526 31.6872 45.6297 31.1012C46.5068 30.5151 47.1903 29.6822 47.594 28.7076C47.9977 27.7331 48.1033 26.6608 47.8975 25.6262C47.6917 24.5916 47.1838 23.6413 46.4379 22.8954C45.692 22.1496 44.7417 21.6416 43.7071 21.4358C42.6726 21.23 41.6002 21.3356 40.6257 21.7393C39.6511 22.143 38.8182 22.8266 38.2322 23.7036C37.6461 24.5807 37.3333 25.6118 37.3333 26.6667C37.3333 28.0812 37.8952 29.4377 38.8954 30.4379C39.8956 31.4381 41.2522 32 42.6667 32ZM42.6667 24C43.1941 24 43.7096 24.1564 44.1482 24.4494C44.5867 24.7424 44.9285 25.1589 45.1303 25.6462C45.3322 26.1334 45.385 26.6696 45.2821 27.1869C45.1792 27.7042 44.9252 28.1793 44.5523 28.5523C44.1793 28.9252 43.7042 29.1792 43.1869 29.2821C42.6696 29.385 42.1334 29.3322 41.6462 29.1303C41.1589 28.9285 40.7424 28.5867 40.4494 28.1482C40.1564 27.7097 40 27.1941 40 26.6667C40 25.9594 40.2809 25.2811 40.781 24.781C41.2811 24.281 41.9594 24 42.6667 24ZM50.6667 44C50.6667 44.3536 50.5262 44.6928 50.2761 44.9428C50.0261 45.1929 49.6869 45.3333 49.3333 45.3333H42.6667C42.313 45.3333 41.9739 45.1929 41.7238 44.9428C41.4738 44.6928 41.3333 44.3536 41.3333 44C41.3333 43.6464 41.4738 43.3072 41.7238 43.0572C41.9739 42.8071 42.313 42.6667 42.6667 42.6667H49.3333C49.6869 42.6667 50.0261 42.8071 50.2761 43.0572C50.5262 43.3072 50.6667 43.6464 50.6667 44ZM50.6667 49.3333C50.6667 49.687 50.5262 50.0261 50.2761 50.2761C50.0261 50.5262 49.6869 50.6667 49.3333 50.6667H42.6667C42.313 50.6667 41.9739 50.5262 41.7238 50.2761C41.4738 50.0261 41.3333 49.687 41.3333 49.3333C41.3333 48.9797 41.4738 48.6406 41.7238 48.3905C41.9739 48.1405 42.313 48 42.6667 48H49.3333C49.6869 48 50.0261 48.1405 50.2761 48.3905C50.5262 48.6406 50.6667 48.9797 50.6667 49.3333Z" fill="#0080FF"/>
</svg>
