<svg width="64" height="64" viewBox="0 0 64 64" fill="none" xmlns="http://www.w3.org/2000/svg">
<path d="M12 24C14.4753 24 16.8493 24.9834 18.5997 26.7337C20.35 28.484 21.3333 30.858 21.3333 33.3334C21.3333 33.687 21.4738 34.0261 21.7238 34.2762C21.9739 34.5262 22.313 34.6667 22.6667 34.6667C23.0203 34.6667 23.3594 34.5262 23.6095 34.2762C23.8595 34.0261 24 33.687 24 33.3334C24 30.858 24.9833 28.484 26.7337 26.7337C28.484 24.9834 30.858 24 33.3333 24C33.6869 24 34.0261 23.8595 34.2761 23.6095C34.5262 23.3594 34.6667 23.0203 34.6667 22.6667C34.6667 22.3131 34.5262 21.9739 34.2761 21.7239C34.0261 21.4738 33.6869 21.3334 33.3333 21.3334C30.858 21.3334 28.484 20.35 26.7337 18.5997C24.9833 16.8493 24 14.4754 24 12C24 11.6464 23.8595 11.3073 23.6095 11.0572C23.3594 10.8072 23.0203 10.6667 22.6667 10.6667C22.313 10.6667 21.9739 10.8072 21.7238 11.0572C21.4738 11.3073 21.3333 11.6464 21.3333 12C21.3333 14.4754 20.35 16.8493 18.5997 18.5997C16.8493 20.35 14.4753 21.3334 12 21.3334C11.6464 21.3334 11.3072 21.4738 11.0572 21.7239C10.8071 21.9739 10.6667 22.3131 10.6667 22.6667C10.6667 23.0203 10.8071 23.3594 11.0572 23.6095C11.3072 23.8595 11.6464 24 12 24ZM22.6667 17.496C23.8141 19.7128 25.6206 21.5193 27.8373 22.6667C25.6206 23.8141 23.8141 25.6206 22.6667 27.8374C21.5193 25.6206 19.7128 23.8141 17.496 22.6667C19.7128 21.5193 21.5193 19.7128 22.6667 17.496Z" fill="#0080FF"/>
<path d="M54.6667 32C52.8986 32 51.2029 31.2976 49.9526 30.0474C48.7024 28.7971 48 27.1014 48 25.3333C48 24.9797 47.8595 24.6406 47.6095 24.3905C47.3594 24.1405 47.0203 24 46.6667 24C46.3131 24 45.9739 24.1405 45.7239 24.3905C45.4738 24.6406 45.3333 24.9797 45.3333 25.3333C45.3333 26.2088 45.1609 27.0757 44.8259 27.8846C44.4908 28.6934 43.9998 29.4283 43.3807 30.0474C42.7617 30.6664 42.0267 31.1575 41.2179 31.4925C40.4091 31.8276 39.5422 32 38.6667 32C38.3131 32 37.9739 32.1405 37.7239 32.3905C37.4738 32.6406 37.3333 32.9797 37.3333 33.3333C37.3333 33.687 37.4738 34.0261 37.7239 34.2761C37.9739 34.5262 38.3131 34.6667 38.6667 34.6667C40.4348 34.6667 42.1305 35.369 43.3807 36.6193C44.631 37.8695 45.3333 39.5652 45.3333 41.3333C45.3333 41.687 45.4738 42.0261 45.7239 42.2761C45.9739 42.5262 46.3131 42.6667 46.6667 42.6667C47.0203 42.6667 47.3594 42.5262 47.6095 42.2761C47.8595 42.0261 48 41.687 48 41.3333C48 39.5652 48.7024 37.8695 49.9526 36.6193C51.2029 35.369 52.8986 34.6667 54.6667 34.6667C55.0203 34.6667 55.3594 34.5262 55.6095 34.2761C55.8595 34.0261 56 33.687 56 33.3333C56 32.9797 55.8595 32.6406 55.6095 32.3905C55.3594 32.1405 55.0203 32 54.6667 32ZM46.6667 36.5333C45.8778 35.221 44.779 34.1222 43.4667 33.3333C44.779 32.5445 45.8778 31.4457 46.6667 30.1333C47.4555 31.4457 48.5543 32.5445 49.8667 33.3333C48.5543 34.1222 47.4555 35.221 46.6667 36.5333Z" fill="#0080FF"/>
<path d="M32 38.6666C32 38.313 31.8595 37.9739 31.6095 37.7238C31.3594 37.4738 31.0203 37.3333 30.6667 37.3333C30.3131 37.3333 29.9739 37.4738 29.7239 37.7238C29.4738 37.9739 29.3333 38.313 29.3333 38.6666C29.3333 40.4348 28.631 42.1304 27.3807 43.3807C26.1305 44.6309 24.4348 45.3333 22.6667 45.3333C22.3131 45.3333 21.9739 45.4738 21.7239 45.7238C21.4738 45.9739 21.3333 46.313 21.3333 46.6666C21.3333 47.0203 21.4738 47.3594 21.7239 47.6095C21.9739 47.8595 22.3131 48 22.6667 48C24.4348 48 26.1305 48.7024 27.3807 49.9526C28.631 51.2028 29.3333 52.8985 29.3333 54.6666C29.3333 55.0203 29.4738 55.3594 29.7239 55.6095C29.9739 55.8595 30.3131 56 30.6667 56C31.0203 56 31.3594 55.8595 31.6095 55.6095C31.8595 55.3594 32 55.0203 32 54.6666C32 52.8985 32.7024 51.2028 33.9526 49.9526C35.2029 48.7024 36.8986 48 38.6667 48C39.0203 48 39.3594 47.8595 39.6095 47.6095C39.8595 47.3594 40 47.0203 40 46.6666C40 46.313 39.8595 45.9739 39.6095 45.7238C39.3594 45.4738 39.0203 45.3333 38.6667 45.3333C36.8986 45.3333 35.2029 44.6309 33.9526 43.3807C32.7024 42.1304 32 40.4348 32 38.6666ZM30.6667 49.8666C29.8778 48.5543 28.779 47.4555 27.4667 46.6666C28.779 45.8778 29.8778 44.779 30.6667 43.4666C31.4555 44.779 32.5543 45.8778 33.8667 46.6666C32.5543 47.4555 31.4555 48.5543 30.6667 49.8666Z" fill="#0080FF"/>
<path d="M41.3333 10.6667C40.5422 10.6667 39.7689 10.9013 39.1111 11.3408C38.4533 11.7803 37.9406 12.405 37.6378 13.136C37.3351 13.8669 37.2559 14.6711 37.4102 15.447C37.5645 16.223 37.9455 16.9357 38.5049 17.4951C39.0643 18.0545 39.7771 18.4355 40.553 18.5898C41.3289 18.7442 42.1332 18.665 42.8641 18.3622C43.595 18.0595 44.2197 17.5468 44.6592 16.889C45.0987 16.2312 45.3333 15.4578 45.3333 14.6667C45.3333 13.6058 44.9119 12.5884 44.1618 11.8383C43.4116 11.0881 42.3942 10.6667 41.3333 10.6667ZM41.3333 16C41.0696 16 40.8118 15.9218 40.5926 15.7753C40.3733 15.6288 40.2024 15.4206 40.1015 15.1769C40.0006 14.9333 39.9742 14.6652 40.0256 14.4066C40.0771 14.1479 40.2041 13.9103 40.3905 13.7239C40.577 13.5374 40.8146 13.4104 41.0732 13.359C41.3319 13.3075 41.6 13.3339 41.8436 13.4348C42.0872 13.5358 42.2955 13.7067 42.442 13.9259C42.5885 14.1452 42.6667 14.403 42.6667 14.6667C42.6667 15.0203 42.5262 15.3594 42.2762 15.6095C42.0261 15.8595 41.687 16 41.3333 16Z" fill="#0080FF"/>
<path d="M50.6667 52C50.6667 51.2089 50.4321 50.4355 49.9925 49.7777C49.553 49.1199 48.9283 48.6072 48.1974 48.3045C47.4665 48.0017 46.6622 47.9225 45.8863 48.0769C45.1104 48.2312 44.3976 48.6122 43.8382 49.1716C43.2788 49.731 42.8979 50.4437 42.7435 51.2196C42.5892 51.9956 42.6684 52.7998 42.9711 53.5307C43.2739 54.2616 43.7866 54.8864 44.4444 55.3259C45.1022 55.7654 45.8755 56 46.6667 56C47.7275 56 48.7449 55.5786 49.4951 54.8284C50.2452 54.0783 50.6667 53.0609 50.6667 52ZM45.3333 52C45.3333 51.7363 45.4115 51.4785 45.558 51.2592C45.7045 51.04 45.9128 50.8691 46.1564 50.7682C46.4 50.6672 46.6681 50.6408 46.9268 50.6923C47.1854 50.7437 47.423 50.8707 47.6095 51.0572C47.7959 51.2437 47.9229 51.4812 47.9744 51.7399C48.0258 51.9985 47.9994 52.2666 47.8985 52.5102C47.7976 52.7539 47.6267 52.9621 47.4074 53.1086C47.1881 53.2551 46.9304 53.3333 46.6667 53.3333C46.313 53.3333 45.9739 53.1929 45.7238 52.9428C45.4738 52.6928 45.3333 52.3536 45.3333 52Z" fill="#0080FF"/>
<path d="M12 41.3333C12 42.1244 12.2346 42.8978 12.6741 43.5556C13.1136 44.2134 13.7384 44.7261 14.4693 45.0288C15.2002 45.3316 16.0044 45.4108 16.7804 45.2565C17.5563 45.1021 18.269 44.7212 18.8284 44.1617C19.3878 43.6023 19.7688 42.8896 19.9231 42.1137C20.0775 41.3378 19.9983 40.5335 19.6955 39.8026C19.3928 39.0717 18.8801 38.447 18.2223 38.0074C17.5645 37.5679 16.7911 37.3333 16 37.3333C14.9391 37.3333 13.9217 37.7547 13.1716 38.5049C12.4214 39.255 12 40.2724 12 41.3333ZM17.3333 41.3333C17.3333 41.597 17.2551 41.8548 17.1086 42.0741C16.9621 42.2933 16.7539 42.4642 16.5102 42.5652C16.2666 42.6661 15.9985 42.6925 15.7399 42.641C15.4812 42.5896 15.2437 42.4626 15.0572 42.2761C14.8707 42.0897 14.7437 41.8521 14.6923 41.5934C14.6408 41.3348 14.6672 41.0667 14.7682 40.8231C14.8691 40.5794 15.04 40.3712 15.2592 40.2247C15.4785 40.0782 15.7363 40 16 40C16.3536 40 16.6928 40.1405 16.9428 40.3905C17.1929 40.6406 17.3333 40.9797 17.3333 41.3333Z" fill="#0080FF"/>
</svg>
