<svg width="48" height="48" viewBox="0 0 48 48" fill="none" xmlns="http://www.w3.org/2000/svg">
<path d="M23.66 33.4319L23.7955 33.4385C24.4679 33.5066 24.9934 34.0748 24.9934 34.7653C24.9934 35.4557 24.4679 36.024 23.7955 36.0921L23.66 36.0986H1.84102C1.10464 36.0986 0.50769 35.5017 0.50769 34.7653C0.50769 34.0289 1.10464 33.4319 1.84102 33.4319H23.66Z" fill="#0080FF"/>
<path d="M18.5793 39.3826C19.3157 39.3826 19.9126 39.9796 19.9126 40.716C19.9126 41.4523 19.3157 42.0493 18.5793 42.0493H1.84102C1.10464 42.0493 0.50769 41.4523 0.50769 40.716C0.50769 39.9796 1.10464 39.3826 1.84102 39.3826H18.5793Z" fill="#0080FF"/>
<path d="M13.2902 45.3333C14.0264 45.3336 14.6236 45.9304 14.6236 46.6666C14.6236 47.4028 14.0264 47.9997 13.2902 48H1.84102C1.10464 48 0.50769 47.403 0.50769 46.6666C0.50769 45.9303 1.10464 45.3333 1.84102 45.3333H13.2902Z" fill="#0080FF"/>
<path d="M17.4559 13.2026C18.1921 13.2027 18.7892 13.7996 18.7892 14.5359C18.7892 15.2722 18.1921 15.8691 17.4559 15.8693H8.14858C7.4122 15.8693 6.81525 15.2723 6.81525 14.5359C6.81525 13.7995 7.4122 13.2026 8.14858 13.2026H17.4559Z" fill="#0080FF"/>
<path d="M11.4683 14.444V12.7461C11.4683 12.0097 12.0653 11.4128 12.8017 11.4128C13.538 11.4128 14.135 12.0097 14.135 12.7461V14.444C14.135 15.1804 13.538 15.7773 12.8017 15.7773C12.0653 15.7773 11.4683 15.1804 11.4683 14.444Z" fill="#0080FF"/>
<path d="M15.6756 13.3946C16.4044 13.4988 16.9112 14.1748 16.8071 14.9037L15.4868 14.7149C16.7961 14.902 16.8071 14.9042 16.8071 14.905L16.8058 14.9063V14.9102C16.8054 14.9128 16.8049 14.9161 16.8045 14.9193C16.8035 14.9256 16.8019 14.9329 16.8006 14.9415C16.7977 14.9592 16.7937 14.9822 16.7888 15.0092C16.779 15.0634 16.7645 15.1363 16.7446 15.2253C16.7047 15.4037 16.6424 15.6494 16.5466 15.9454C16.3553 16.5368 16.0307 17.3378 15.4894 18.2175C14.3972 19.9923 12.4466 22.0485 9.04534 23.3568C8.35805 23.6212 7.58573 23.2785 7.32139 22.5912C7.05733 21.9042 7.40017 21.1331 8.08701 20.8686C10.8897 19.7906 12.4003 18.1478 13.2172 16.8204C13.6302 16.1493 13.8721 15.5478 14.0089 15.1251C14.0771 14.9141 14.1195 14.7483 14.143 14.6433C14.1546 14.5912 14.1615 14.5541 14.1651 14.5339C14.1668 14.5246 14.1674 14.5189 14.1677 14.517C14.2763 13.793 14.9497 13.2909 15.6756 13.3946Z" fill="#0080FF"/>
<path d="M10.1342 16.0852C10.7612 15.6993 11.5828 15.8945 11.9688 16.5214C12.7919 17.8589 14.6044 19.7934 17.3972 20.8677C18.0845 21.1321 18.4272 21.9044 18.1628 22.5917C17.8983 23.2786 17.1273 23.6215 16.4402 23.3573C13.0288 22.0452 10.7841 19.6845 9.69797 17.9198C9.31211 17.2928 9.50731 16.4712 10.1342 16.0852Z" fill="#0080FF"/>
<path d="M0.5 23.7907V11.0693C0.5 7.78746 3.16101 5.12659 6.44271 5.12659H17.457C18.1932 5.12685 18.7904 5.7237 18.7904 6.45992C18.7904 7.19614 18.1932 7.79299 17.457 7.79325H6.44271C4.63373 7.79325 3.16667 9.26026 3.16667 11.0693V23.7907C3.16676 25.5995 4.63373 27.0654 6.44271 27.0654H19.1641C20.9729 27.0654 22.44 25.5996 22.4401 23.7907C22.4401 23.0543 23.0371 22.4573 23.7734 22.4573C24.5095 22.4576 25.1068 23.0545 25.1068 23.7907C25.1067 27.0724 22.4457 29.732 19.1641 29.7321H6.44271C3.16093 29.7321 0.500096 27.0723 0.5 23.7907Z" fill="#0080FF"/>
<path d="M31.7142 6.03516C32.2568 6.03516 32.7457 6.36449 32.9499 6.86719L36.959 16.7357C37.2361 17.4178 36.9079 18.1954 36.2259 18.4727C35.5438 18.7498 34.7662 18.4216 34.489 17.7396L31.7142 10.9102L28.9408 17.7396C28.6637 18.4217 27.8859 18.7495 27.2038 18.4727C26.5216 18.1955 26.1924 17.4179 26.4694 16.7357L30.4799 6.86719L30.5684 6.6862C30.8061 6.28667 31.2396 6.03525 31.7142 6.03516Z" fill="#0080FF"/>
<path d="M34.3209 12.6989C35.0572 12.6991 35.6542 13.296 35.6542 14.0323C35.6542 14.7686 35.0572 15.3655 34.3209 15.3656H29.0071C28.2707 15.3656 27.6738 14.7687 27.6738 14.0323C27.6738 13.2959 28.2707 12.6989 29.0071 12.6989H34.3209Z" fill="#0080FF"/>
<path d="M41.3513 18.6641V5.94271C41.3513 4.13376 39.8843 2.66671 38.0753 2.66667H25.3539C23.5449 2.66667 22.0779 4.13367 22.0779 5.94271V18.6641C22.0779 20.473 23.5449 21.9401 25.3539 21.9401H35.0349C35.7713 21.9401 36.3682 22.5371 36.3682 23.2734C36.3679 24.0095 35.7711 24.6068 35.0349 24.6068H25.3539C22.0721 24.6068 19.4112 21.9457 19.4112 18.6641V5.94271C19.4112 2.66087 22.0722 0 25.3539 0H38.0753C41.3571 3.98492e-05 44.018 2.66104 44.018 5.94271V18.6641C44.0179 19.4002 43.4207 19.9971 42.6846 19.9974C41.9483 19.9974 41.3514 19.4004 41.3513 18.6641Z" fill="#0080FF"/>
<path d="M41.1875 22.0603C42.0547 21.3535 43.3061 21.3535 44.1732 22.0603L44.3529 22.2231L47.1862 25.0564C48.1102 25.9803 48.1102 27.4788 47.1862 28.4027L30.6563 44.9327C30.5242 45.0647 30.3657 45.1678 30.1914 45.2348L23.2214 47.9119C22.7299 48.1005 22.1732 47.9819 21.8008 47.6098C21.4285 47.2375 21.3102 46.6807 21.4987 46.1892L24.1758 39.2178L24.2318 39.0902C24.2952 38.966 24.3789 38.8521 24.4779 38.753L41.0079 22.2231L41.1875 22.0603ZM26.5638 40.4366L25.0612 44.3481L28.9714 42.8455L45.0873 26.7296L42.6797 24.3207L26.5638 40.4366Z" fill="#0080FF"/>
<path d="M38.913 24.8833C39.4337 24.3626 40.2778 24.3626 40.7985 24.8833L44.5862 28.671C45.1067 29.1917 45.1068 30.0358 44.5862 30.5564C44.0656 31.077 43.2215 31.0769 42.7008 30.5564L38.913 26.7687C38.3923 26.248 38.3924 25.404 38.913 24.8833Z" fill="#0080FF"/>
</svg>
