<svg width="65" height="64" viewBox="0 0 65 64" fill="none" xmlns="http://www.w3.org/2000/svg">
<path d="M19.1667 26.6667V13.3333H15.1667C14.813 13.3333 14.4739 13.1929 14.2239 12.9428C13.9738 12.6928 13.8333 12.3536 13.8333 12C13.8333 11.6464 13.9738 11.3072 14.2239 11.0572C14.4739 10.8071 14.813 10.6667 15.1667 10.6667H19.1667C19.8739 10.6667 20.5522 10.9476 21.0523 11.4477C21.5524 11.9478 21.8333 12.6261 21.8333 13.3333V26.6667H25.8333C26.187 26.6667 26.5261 26.8071 26.7761 27.0572C27.0262 27.3072 27.1667 27.6464 27.1667 28C27.1667 28.3536 27.0262 28.6928 26.7761 28.9428C26.5261 29.1929 26.187 29.3333 25.8333 29.3333H15.1667C14.813 29.3333 14.4739 29.1929 14.2239 28.9428C13.9738 28.6928 13.8333 28.3536 13.8333 28C13.8333 27.6464 13.9738 27.3072 14.2239 27.0572C14.4739 26.8071 14.813 26.6667 15.1667 26.6667H19.1667ZM43.1667 29.3333H52.5C52.8536 29.3333 53.1928 29.1929 53.4428 28.9428C53.6929 28.6928 53.8333 28.3536 53.8333 28C53.8333 27.6464 53.6929 27.3072 53.4428 27.0572C53.1928 26.8071 52.8536 26.6667 52.5 26.6667H43.1667V21.3333H51.1667C51.8739 21.3333 52.5522 21.0524 53.0523 20.5523C53.5524 20.0522 53.8333 19.3739 53.8333 18.6667V13.3333C53.8333 12.6261 53.5524 11.9478 53.0523 11.4477C52.5522 10.9476 51.8739 10.6667 51.1667 10.6667H41.8333C41.4797 10.6667 41.1406 10.8071 40.8905 11.0572C40.6405 11.3072 40.5 11.6464 40.5 12C40.5 12.3536 40.6405 12.6928 40.8905 12.9428C41.1406 13.1929 41.4797 13.3333 41.8333 13.3333H51.1667V18.6667H43.1667C42.4594 18.6667 41.7811 18.9476 41.281 19.4477C40.781 19.9478 40.5 20.6261 40.5 21.3333V26.6667C40.5 27.3739 40.781 28.0522 41.281 28.5523C41.7811 29.0524 42.4594 29.3333 43.1667 29.3333ZM15.1667 53.3333C14.813 53.3333 14.4739 53.4738 14.2239 53.7239C13.9738 53.9739 13.8333 54.313 13.8333 54.6667C13.8333 55.0203 13.9738 55.3594 14.2239 55.6095C14.4739 55.8595 14.813 56 15.1667 56H24.5C25.2072 56 25.8855 55.7191 26.3856 55.219C26.8857 54.7189 27.1667 54.0406 27.1667 53.3333V40C27.1667 39.2928 26.8857 38.6145 26.3856 38.1144C25.8855 37.6143 25.2072 37.3333 24.5 37.3333H15.1667C14.813 37.3333 14.4739 37.4738 14.2239 37.7239C13.9738 37.9739 13.8333 38.313 13.8333 38.6667C13.8333 39.0203 13.9738 39.3594 14.2239 39.6095C14.4739 39.8595 14.813 40 15.1667 40H24.5V45.3333H15.1667C14.813 45.3333 14.4739 45.4738 14.2239 45.7239C13.9738 45.9739 13.8333 46.313 13.8333 46.6667C13.8333 47.0203 13.9738 47.3594 14.2239 47.6095C14.4739 47.8595 14.813 48 15.1667 48H24.5V53.3333H15.1667ZM43.1667 48H51.1667V54.6667C51.1667 55.0203 51.3071 55.3594 51.5572 55.6095C51.8072 55.8595 52.1464 56 52.5 56C52.8536 56 53.1928 55.8595 53.4428 55.6095C53.6929 55.3594 53.8333 55.0203 53.8333 54.6667V38.6667C53.8333 38.313 53.6929 37.9739 53.4428 37.7239C53.1928 37.4738 52.8536 37.3333 52.5 37.3333C52.1464 37.3333 51.8072 37.4738 51.5572 37.7239C51.3071 37.9739 51.1667 38.313 51.1667 38.6667V45.3333H43.1667V38.6667C43.1667 38.313 43.0262 37.9739 42.7761 37.7239C42.5261 37.4738 42.187 37.3333 41.8333 37.3333C41.4797 37.3333 41.1406 37.4738 40.8905 37.7239C40.6405 37.9739 40.5 38.313 40.5 38.6667V45.3333C40.5 46.0406 40.781 46.7189 41.281 47.219C41.7811 47.7191 42.4594 48 43.1667 48Z" fill="#0080FF"/>
</svg>
