<svg width="64" height="64" viewBox="0 0 64 64" fill="none" xmlns="http://www.w3.org/2000/svg">
<path d="M44 24H34.6667V18.4213C35.5563 18.1068 36.3061 17.4879 36.7835 16.674C37.2609 15.8601 37.4353 14.9037 37.2757 13.9737C37.1162 13.0437 36.633 12.2001 35.9115 11.5919C35.1901 10.9837 34.2769 10.6501 33.3333 10.6501C32.3898 10.6501 31.4765 10.9837 30.7551 11.5919C30.0337 12.2001 29.5505 13.0437 29.3909 13.9737C29.2314 14.9037 29.4057 15.8601 29.8832 16.674C30.3606 17.4879 31.1104 18.1068 32 18.4213V24H22.6667C20.8986 24 19.2029 24.7024 17.9526 25.9526C16.7024 27.2029 16 28.8986 16 30.6667V49.3333C16 51.1014 16.7024 52.7971 17.9526 54.0474C19.2029 55.2976 20.8986 56 22.6667 56H44C45.7681 56 47.4638 55.2976 48.714 54.0474C49.9643 52.7971 50.6667 51.1014 50.6667 49.3333V30.6667C50.6667 28.8986 49.9643 27.2029 48.714 25.9526C47.4638 24.7024 45.7681 24 44 24ZM33.3333 13.3333C33.597 13.3333 33.8548 13.4115 34.0741 13.558C34.2934 13.7046 34.4643 13.9128 34.5652 14.1564C34.6661 14.4001 34.6925 14.6681 34.641 14.9268C34.5896 15.1854 34.4626 15.423 34.2761 15.6095C34.0897 15.7959 33.8521 15.9229 33.5935 15.9744C33.3348 16.0258 33.0667 15.9994 32.8231 15.8985C32.5795 15.7976 32.3712 15.6267 32.2247 15.4074C32.0782 15.1882 32 14.9304 32 14.6667C32 14.313 32.1405 13.9739 32.3905 13.7239C32.6406 13.4738 32.9797 13.3333 33.3333 13.3333ZM48 49.3333C48 50.3942 47.5786 51.4116 46.8284 52.1618C46.0783 52.9119 45.0609 53.3333 44 53.3333H22.6667C21.6058 53.3333 20.5884 52.9119 19.8382 52.1618C19.0881 51.4116 18.6667 50.3942 18.6667 49.3333V46.6667H24.7813L27.056 48.944C27.1801 49.0677 27.3273 49.1658 27.4893 49.2326C27.6512 49.2994 27.8248 49.3336 28 49.3333H38.6667C38.8419 49.3336 39.0154 49.2994 39.1774 49.2326C39.3394 49.1658 39.4866 49.0677 39.6107 48.944L41.8853 46.6667H48V49.3333ZM48 44H41.3333C41.1581 43.9997 40.9846 44.0339 40.8226 44.1007C40.6606 44.1675 40.5134 44.2656 40.3893 44.3893L38.1147 46.6667H28.552L26.2773 44.3893C26.1533 44.2656 26.0061 44.1675 25.8441 44.1007C25.6821 44.0339 25.5085 43.9997 25.3333 44H18.6667V30.6667C18.6667 29.6058 19.0881 28.5884 19.8382 27.8382C20.5884 27.0881 21.6058 26.6667 22.6667 26.6667H44C45.0609 26.6667 46.0783 27.0881 46.8284 27.8382C47.5786 28.5884 48 29.6058 48 30.6667V44ZM29.3333 34.6667V37.3333C29.3333 37.687 29.1929 38.0261 28.9428 38.2761C28.6928 38.5262 28.3536 38.6667 28 38.6667C27.6464 38.6667 27.3072 38.5262 27.0572 38.2761C26.8071 38.0261 26.6667 37.687 26.6667 37.3333V34.6667C26.6667 34.313 26.8071 33.9739 27.0572 33.7239C27.3072 33.4738 27.6464 33.3333 28 33.3333C28.3536 33.3333 28.6928 33.4738 28.9428 33.7239C29.1929 33.9739 29.3333 34.313 29.3333 34.6667ZM40 34.6667V37.3333C40 37.687 39.8595 38.0261 39.6095 38.2761C39.3594 38.5262 39.0203 38.6667 38.6667 38.6667C38.313 38.6667 37.9739 38.5262 37.7239 38.2761C37.4738 38.0261 37.3333 37.687 37.3333 37.3333V34.6667C37.3333 34.313 37.4738 33.9739 37.7239 33.7239C37.9739 33.4738 38.313 33.3333 38.6667 33.3333C39.0203 33.3333 39.3594 33.4738 39.6095 33.7239C39.8595 33.9739 40 34.313 40 34.6667Z" fill="#0080FF"/>
</svg>
