<svg width="64" height="64" viewBox="0 0 64 64" fill="none" xmlns="http://www.w3.org/2000/svg">
<path d="M21.3333 44V52C21.3333 53.0609 21.7547 54.0783 22.5049 54.8284C23.255 55.5786 24.2725 56 25.3333 56H33.3333C33.6868 55.9989 34.0258 55.8591 34.2773 55.6107L51.8373 38.048C52.4566 37.4289 52.9478 36.6939 53.2829 35.885C53.6181 35.076 53.7906 34.209 53.7906 33.3334C53.7906 32.4577 53.6181 31.5907 53.2829 30.7817C52.9478 29.9728 52.4566 29.2378 51.8373 28.6187L48.7147 25.496C48.0956 24.8768 47.3606 24.3856 46.5516 24.0504C45.7427 23.7153 44.8756 23.5428 44 23.5428C43.1244 23.5428 42.2573 23.7153 41.4484 24.0504C40.6394 24.3856 39.9044 24.8768 39.2853 25.496L21.7227 43.056C21.4742 43.3075 21.3344 43.6465 21.3333 44ZM24 52V47.2187L30.1147 53.3334H25.3333C24.9797 53.3334 24.6406 53.1929 24.3905 52.9428C24.1405 52.6928 24 52.3536 24 52ZM38.6667 29.8854L42.1147 33.3334L28 47.448L24.552 44L38.6667 29.8854ZM33.3333 52.7813L29.8853 49.3334L44 35.2187L47.448 38.6667L33.3333 52.7813ZM46.8293 27.3814L49.952 30.504C50.3237 30.8755 50.6186 31.3166 50.8197 31.802C51.0209 32.2875 51.1245 32.8078 51.1245 33.3334C51.1245 33.8589 51.0209 34.3792 50.8197 34.8647C50.6186 35.3501 50.3237 35.7912 49.952 36.1627L49.3333 36.7814L40.552 28L41.1707 27.3814C41.5421 27.0096 41.9832 26.7148 42.4687 26.5136C42.9541 26.3124 43.4745 26.2089 44 26.2089C44.5255 26.2089 45.0458 26.3124 45.5313 26.5136C46.0168 26.7148 46.4579 27.0096 46.8293 27.3814ZM56 12C56 12.3536 55.8595 12.6928 55.6095 12.9428C55.3594 13.1929 55.0203 13.3334 54.6667 13.3334H12C11.6464 13.3334 11.3072 13.1929 11.0572 12.9428C10.8071 12.6928 10.6667 12.3536 10.6667 12C10.6667 11.6464 10.8071 11.3073 11.0572 11.0572C11.3072 10.8072 11.6464 10.6667 12 10.6667H54.6667C55.0203 10.6667 55.3594 10.8072 55.6095 11.0572C55.8595 11.3073 56 11.6464 56 12ZM56 20C56 20.3536 55.8595 20.6928 55.6095 20.9428C55.3594 21.1929 55.0203 21.3334 54.6667 21.3334H12C11.6464 21.3334 11.3072 21.1929 11.0572 20.9428C10.8071 20.6928 10.6667 20.3536 10.6667 20C10.6667 19.6464 10.8071 19.3073 11.0572 19.0572C11.3072 18.8072 11.6464 18.6667 12 18.6667H54.6667C55.0203 18.6667 55.3594 18.8072 55.6095 19.0572C55.8595 19.3073 56 19.6464 56 20ZM32 28C32 28.3536 31.8595 28.6928 31.6095 28.9428C31.3594 29.1929 31.0203 29.3334 30.6667 29.3334H12C11.6464 29.3334 11.3072 29.1929 11.0572 28.9428C10.8071 28.6928 10.6667 28.3536 10.6667 28C10.6667 27.6464 10.8071 27.3073 11.0572 27.0572C11.3072 26.8072 11.6464 26.6667 12 26.6667H30.6667C31.0203 26.6667 31.3594 26.8072 31.6095 27.0572C31.8595 27.3073 32 27.6464 32 28ZM10.6667 36C10.6667 35.6464 10.8071 35.3073 11.0572 35.0572C11.3072 34.8072 11.6464 34.6667 12 34.6667H22.6667C23.0203 34.6667 23.3594 34.8072 23.6095 35.0572C23.8595 35.3073 24 35.6464 24 36C24 36.3536 23.8595 36.6928 23.6095 36.9428C23.3594 37.1929 23.0203 37.3334 22.6667 37.3334H12C11.6464 37.3334 11.3072 37.1929 11.0572 36.9428C10.8071 36.6928 10.6667 36.3536 10.6667 36Z" fill="#0080FF"/>
</svg>
