<svg width="65" height="64" viewBox="0 0 65 64" fill="none" xmlns="http://www.w3.org/2000/svg">
<path d="M54.6787 18.52L34.6787 11.016C34.0768 10.7911 33.4139 10.7911 32.812 11.016L12.812 18.5174C12.3038 18.7078 11.8658 19.0489 11.5566 19.4949C11.2473 19.9409 11.0815 20.4706 11.0813 21.0134C11.0623 28.218 13.0647 35.2835 16.8608 41.4069C20.657 47.5303 26.0947 52.4661 32.556 55.6534C32.9448 55.8401 33.3721 55.9328 33.8034 55.924C34.2346 55.9152 34.6578 55.8051 35.0387 55.6027C41.4756 52.4092 46.8893 47.4764 50.666 41.3634C54.4427 35.2504 56.4314 28.2016 56.4067 21.016C56.4067 20.4736 56.2413 19.9441 55.9325 19.4981C55.6238 19.0522 55.1864 18.7109 54.6787 18.52ZM53.74 21.016C53.7647 27.7318 51.8913 34.3179 48.3358 40.0153C44.7804 45.7128 39.6875 50.2897 33.644 53.2187C27.6483 50.2469 22.6054 45.6543 19.0873 39.9619C15.5692 34.2695 13.7167 27.7051 13.74 21.0134L33.74 13.5147L53.74 21.016ZM42.684 27.1494C42.934 27.3994 43.0744 27.7385 43.0744 28.092C43.0744 28.4456 42.934 28.7846 42.684 29.0347L35.6253 36.0934C35.1253 36.5933 34.4471 36.8741 33.74 36.8741C33.0329 36.8741 32.3547 36.5933 31.8547 36.0934L27.4653 31.7014C27.2225 31.4499 27.0881 31.1131 27.0911 30.7635C27.0941 30.4139 27.2344 30.0795 27.4816 29.8323C27.7288 29.585 28.0632 29.4448 28.4128 29.4418C28.7624 29.4387 29.0992 29.5731 29.3507 29.816L33.74 34.208L40.7987 27.1494C41.0487 26.8994 41.3878 26.759 41.7413 26.759C42.0949 26.759 42.434 26.8994 42.684 27.1494Z" fill="#0080FF"/>
</svg>
