<svg width="65" height="64" viewBox="0 0 65 64" fill="none" xmlns="http://www.w3.org/2000/svg">
<path d="M42.2014 21.3334H33.8334C32.7725 21.3334 31.7551 21.7548 31.0049 22.5049C30.2548 23.2551 29.8334 24.2725 29.8334 25.3334V29.3334H25.8334C24.7725 29.3334 23.7551 29.7548 23.0049 30.5049C22.2548 31.2551 21.8334 32.2725 21.8334 33.3334V41.3334C21.8334 42.3942 22.2548 43.4116 23.0049 44.1618C23.7551 44.9119 24.7725 45.3334 25.8334 45.3334H33.8334C34.8942 45.3334 35.9116 44.9119 36.6618 44.1618C37.4119 43.4116 37.8334 42.3942 37.8334 41.3334V37.7014H42.2014C43.2622 37.7014 44.2796 37.2799 45.0298 36.5298C45.7799 35.7796 46.2014 34.7622 46.2014 33.7014V25.3334C46.2014 24.2725 45.7799 23.2551 45.0298 22.5049C44.2796 21.7548 43.2622 21.3334 42.2014 21.3334ZM35.1667 41.3334C35.1667 41.687 35.0262 42.0261 34.7762 42.2762C34.5261 42.5262 34.187 42.6667 33.8334 42.6667H25.8334C25.4797 42.6667 25.1406 42.5262 24.8905 42.2762C24.6405 42.0261 24.5 41.687 24.5 41.3334V33.3334C24.5 32.9797 24.6405 32.6406 24.8905 32.3905C25.1406 32.1405 25.4797 32 25.8334 32H29.8334V33.7014C29.8334 34.7622 30.2548 35.7796 31.0049 36.5298C31.7551 37.2799 32.7725 37.7014 33.8334 37.7014H35.1667V41.3334ZM43.5347 33.7014C43.5347 34.055 43.3942 34.3941 43.1442 34.6442C42.8941 34.8942 42.555 35.0347 42.2014 35.0347H33.8334C33.4797 35.0347 33.1406 34.8942 32.8905 34.6442C32.6405 34.3941 32.5 34.055 32.5 33.7014V25.3334C32.5 24.9797 32.6405 24.6406 32.8905 24.3905C33.1406 24.1405 33.4797 24 33.8334 24H42.2014C42.555 24 42.8941 24.1405 43.1442 24.3905C43.3942 24.6406 43.5347 24.9797 43.5347 25.3334V33.7014ZM49.8334 10.6667H23.1667C22.9913 10.6667 22.8176 10.7014 22.6556 10.7686C22.4936 10.8359 22.3465 10.9345 22.2227 11.0587L11.556 21.7254C11.3068 21.9752 11.1668 22.3137 11.1667 22.6667V49.3334C11.1667 51.1015 11.8691 52.7972 13.1193 54.0474C14.3696 55.2976 16.0652 56 17.8334 56H49.8334C51.6015 56 53.2972 55.2976 54.5474 54.0474C55.7976 52.7972 56.5 51.1015 56.5 49.3334V17.3334C56.5 15.5652 55.7976 13.8696 54.5474 12.6193C53.2972 11.3691 51.6015 10.6667 49.8334 10.6667ZM21.8334 15.2187V17.3334C21.8334 18.3942 21.4119 19.4116 20.6618 20.1618C19.9116 20.9119 18.8942 21.3334 17.8334 21.3334H15.7187L21.8334 15.2187ZM53.8334 49.3334C53.8334 50.3942 53.4119 51.4116 52.6618 52.1618C51.9116 52.9119 50.8942 53.3334 49.8334 53.3334H17.8334C16.7725 53.3334 15.7551 52.9119 15.0049 52.1618C14.2548 51.4116 13.8334 50.3942 13.8334 49.3334V24H17.8334C19.6015 24 21.2972 23.2976 22.5474 22.0474C23.7976 20.7972 24.5 19.1015 24.5 17.3334V13.3334H49.8334C50.8942 13.3334 51.9116 13.7548 52.6618 14.5049C53.4119 15.2551 53.8334 16.2725 53.8334 17.3334V49.3334Z" fill="#0080FF"/>
</svg>
