<svg width="79" height="90" viewBox="0 0 79 90" fill="none" xmlns="http://www.w3.org/2000/svg">
<path d="M64.3994 26.085V73.8833C64.3994 77.8837 61.1563 81.1268 57.1559 81.1268H7.35714C3.35676 81.1268 0.113678 77.8837 0.113678 73.8833V7.24346C0.113678 3.24308 3.35676 0 7.35714 0H38.3586C39.182 0 39.986 0.186881 40.714 0.537103C41.2618 0.800584 63.6433 23.247 63.9094 23.8301C64.2293 24.5314 64.3994 25.2994 64.3994 26.085Z" fill="#F9F8F9"/>
<path d="M64.3994 26.0855V29.2708H45.5085C39.8133 29.2708 35.1793 24.6314 35.1793 18.9308V0H38.3592C39.1458 0 39.9152 0.170946 40.6177 0.492374C41.2022 0.759839 63.6559 23.2649 63.9228 23.8592C64.2341 24.5526 64.3994 25.3105 64.3994 26.0855Z" fill="#E3E0E4"/>
<path d="M64.3994 26.0855V29.2708H45.5085C39.8133 29.2708 35.1793 24.6314 35.1793 18.9308V0H38.3592C39.8006 0 41.1841 0.574044 42.2036 1.59537L62.8131 22.2483C63.829 23.266 64.3994 24.6459 64.3994 26.0855Z" fill="#E3E0E4"/>
<path d="M64.3994 26.0855V29.2708H45.5085C39.8133 29.2708 35.1793 24.6314 35.1793 18.9308V0H38.3592C39.1458 0 39.9152 0.170946 40.6177 0.492374C41.2022 0.759839 63.6559 23.2649 63.9228 23.8592C64.2341 24.5526 64.3994 25.3105 64.3994 26.0855Z" fill="#EDEFFF"/>
<path d="M12.7897 81.1268H7.35714C3.35694 81.1268 0.113678 77.8835 0.113678 73.8833V7.24346C0.113678 3.24326 3.35694 0 7.35714 0H12.7897C8.78953 0 5.54627 3.24326 5.54627 7.24346V73.8833C5.54627 77.8835 8.78953 81.1268 12.7897 81.1268Z" fill="#41A0FF"/>
<path d="M32.9099 27.1631H10.5095C9.75943 27.1631 9.15134 26.555 9.15134 25.8049C9.15134 25.0549 9.75943 24.4468 10.5095 24.4468H32.9099C33.6599 24.4468 34.268 25.0549 34.268 25.8049C34.268 26.555 33.6599 27.1631 32.9099 27.1631Z" fill="#0080FF"/>
<path d="M32.9099 59.7588H10.5095C9.75943 59.7588 9.15134 59.1507 9.15134 58.4006C9.15134 57.6506 9.75943 57.0425 10.5095 57.0425H32.9099C33.6599 57.0425 34.268 57.6506 34.268 58.4006C34.268 59.1507 33.6599 59.7588 32.9099 59.7588Z" fill="#0080FF"/>
<path d="M50.7107 38.0283H10.1473C9.39726 38.0283 8.78917 37.4202 8.78917 36.6702C8.78917 35.9201 9.39726 35.312 10.1473 35.312H50.7107C51.4608 35.312 52.0688 35.9201 52.0688 36.6702C52.0688 37.4202 51.4608 38.0283 50.7107 38.0283Z" fill="#0080FF"/>
<path d="M50.7107 48.8935H10.1473C9.39726 48.8935 8.78917 48.2855 8.78917 47.5354C8.78917 46.7853 9.39726 46.1772 10.1473 46.1772H50.7107C51.4608 46.1772 52.0688 46.7853 52.0688 47.5354C52.0688 48.2855 51.4608 48.8935 50.7107 48.8935Z" fill="#0080FF"/>
<path d="M63.9123 23.8384H45.5084C42.8048 23.8384 40.6119 21.64 40.6119 18.9309V0.492676C41.1986 0.757062 41.74 1.1301 42.2036 1.59549L62.8131 22.2484C63.2748 22.712 63.6479 23.2516 63.9123 23.8384Z" fill="#41A0FF"/>
<path d="M60.504 90.0001C70.6563 90.0001 78.8863 81.7709 78.8863 71.6198C78.8863 61.4686 70.6563 53.2395 60.504 53.2395C50.3518 53.2395 42.1218 61.4686 42.1218 71.6198C42.1218 81.7709 50.3518 90.0001 60.504 90.0001Z" fill="#0080FF"/>
<path d="M75.1867 82.6786C71.833 87.1261 66.5036 89.9999 60.5042 89.9999C50.3525 89.9999 42.1221 81.7714 42.1221 71.6196C42.1221 65.6203 44.996 60.2927 49.4435 56.939C47.1201 60.0156 45.7439 63.8456 45.7439 67.9979C45.7439 78.1496 53.9742 86.3782 64.126 86.3782C68.2783 86.3782 72.1082 85.0019 75.1867 82.6786Z" fill="#41A0FF"/>
<path d="M68.7011 66.6167L61.8198 62.8139C61.4202 62.5955 60.9635 62.4733 60.5086 62.4744L60.5088 62.4749C60.0557 62.4742 59.6022 62.5872 59.1922 62.8137L52.311 66.6166C50.9979 67.3422 50.5216 68.9948 51.2473 70.3078C51.9731 71.6207 53.6257 72.0971 54.9385 71.3713L57.7897 69.7957V78.0482C57.7897 79.5483 59.0059 80.7645 60.506 80.7645C62.0062 80.7645 63.2223 79.5483 63.2223 78.0482V69.7955L66.0735 71.3712C67.3866 72.0968 69.039 71.6205 69.7648 70.3076C70.4904 68.9949 70.0142 67.3423 68.7011 66.6167Z" fill="#F9F8F9"/>
</svg>
