<svg width="52" height="52" viewBox="0 0 52 52" fill="none" xmlns="http://www.w3.org/2000/svg">
<rect width="52" height="52" rx="10" fill="black"/>
<g clip-path="url(#clip0_77_11244)">
<path d="M35.1496 25.2C30.7496 25.2 27.1996 21.65 27.1996 17.25C27.1996 16.25 27.3996 15.25 27.7496 14.4H13.7996C13.4996 14.4 13.1996 14.4 12.8996 14.45C11.4496 14.7 10.3496 15.9 10.3496 17.35C10.3496 24.25 10.3496 31.1 10.3496 37.95C10.3496 39.7 11.8496 41.2 13.5996 41.2H33.9496C34.5496 41.2 35.0996 41 35.5496 40.65C36.4496 39.95 36.8496 39 36.8496 37.9C36.8496 34.5 36.8496 31.05 36.8496 27.65V25C36.3496 25.1 35.7496 25.2 35.1496 25.2ZM18.2496 18.4C20.1996 18.4 21.7496 19.95 21.7496 21.9C21.7496 23.85 20.1996 25.4 18.2996 25.4C16.3496 25.4 14.7996 23.8 14.7996 21.9C14.7996 19.95 16.3496 18.4 18.2496 18.4ZM33.6996 36.75C33.6496 36.85 33.4496 36.95 33.1996 36.95C33.1496 36.95 33.1496 36.95 33.0996 36.95H19.6996C18.6996 36.95 17.6996 36.95 16.6496 36.9C16.1996 36.9 15.6996 36.9 15.2496 36.9C14.7996 36.9 14.3996 37 13.9496 36.95H13.8996C13.8496 36.95 13.7996 36.95 13.7996 36.9C13.4996 36.7 14.0996 36.3 14.1996 36.15C14.4996 35.8 17.8996 31.05 17.9496 31C18.3996 30.3 19.0496 29.95 19.6996 29.95C20.6496 29.95 21.1496 30.95 21.8996 31.4C22.8996 32 23.5496 31.2 23.9996 30.45C24.3496 29.95 24.6496 29.4 24.9996 28.85C25.1996 28.55 25.3996 28.2 25.5996 27.9C25.8496 27.55 26.0496 27.15 26.2996 26.8L26.7496 26.05C26.7996 26 26.8496 25.95 26.8496 25.9C27.0496 25.65 27.2496 25.5 27.3996 25.5C27.5496 25.5 27.7496 25.65 27.8996 25.95C29.5496 28.9 31.1996 31.9 32.8496 34.8L33.6496 36.2C33.6996 36.3 33.7496 36.4 33.7996 36.5C33.7496 36.55 33.7996 36.65 33.6996 36.75Z" fill="white"/>
<path d="M35.1496 10.75C31.5496 10.75 28.6496 13.65 28.6496 17.25C28.6496 20.85 31.5496 23.75 35.1496 23.75C38.7496 23.75 41.6496 20.85 41.6496 17.25C41.6496 13.65 38.7496 10.75 35.1496 10.75ZM38.7996 16.65L37.9996 17.35C37.9496 17.4 37.8496 17.4 37.7996 17.35L36.1496 15.7C36.0496 15.6 35.8996 15.65 35.8996 15.8V21.55C35.8996 21.65 35.8496 21.7 35.7496 21.7H34.6496C34.5496 21.7 34.4996 21.65 34.4996 21.55V15.6C34.4996 15.45 34.3496 15.4 34.2496 15.5L32.3496 17.4C32.2996 17.45 32.1996 17.45 32.1496 17.4L31.4996 16.6C31.4496 16.55 31.4496 16.45 31.4996 16.4L35.0496 12.85C35.0996 12.8 35.1996 12.8 35.2496 12.85L38.7996 16.4C38.8496 16.5 38.8496 16.55 38.7996 16.65Z" fill="white"/>
</g>
<defs>
<clipPath id="clip0_77_11244">
<rect width="32" height="32" fill="white" transform="translate(10 10)"/>
</clipPath>
</defs>
</svg>
