<svg width="52" height="52" viewBox="0 0 52 52" fill="none" xmlns="http://www.w3.org/2000/svg">
<rect width="52" height="52" rx="10" fill="black"/>
<path d="M24 19.5709H20.4C19.8472 19.5939 19.2956 19.5029 18.7795 19.3037C18.2634 19.1044 17.7938 18.8011 17.3999 18.4126C17.006 18.0242 16.6962 17.5588 16.4898 17.0455C16.2833 16.5322 16.1847 15.9819 16.2 15.4289V11.9999C16.2018 11.6589 16.262 11.3207 16.378 10.9999H13.2C12.6243 10.993 12.0693 11.2147 11.6568 11.6165C11.2444 12.0182 11.0082 12.5672 11 13.1429V26.8569C11.0082 27.4326 11.2444 27.9816 11.6568 28.3834C12.0693 28.7851 12.6243 29.0069 13.2 28.9999H22.8C23.3757 29.0069 23.9307 28.7851 24.3432 28.3834C24.7556 27.9816 24.9918 27.4326 25 26.8569V19.3999C24.6787 19.5131 24.3406 19.5709 24 19.5709Z" fill="white"/>
<path d="M24.6895 15.8469L19.8905 11.2759C19.7488 11.1409 19.5705 11.0504 19.3779 11.0156C19.1852 10.9809 18.9866 11.0035 18.8067 11.0806C18.6267 11.1576 18.4734 11.2859 18.3656 11.4493C18.2578 11.6127 18.2004 11.8042 18.2005 11.9999V15.4289C18.1842 15.7195 18.2304 16.0102 18.336 16.2814C18.4416 16.5526 18.6041 16.7979 18.8127 17.001C19.0212 17.204 19.2708 17.3599 19.5447 17.4582C19.8186 17.5566 20.1104 17.595 20.4005 17.5709H24.0005C24.2002 17.5708 24.3954 17.5108 24.5607 17.3987C24.7261 17.2866 24.8541 17.1276 24.9282 16.9421C25.0024 16.7566 25.0193 16.5531 24.9767 16.3579C24.9341 16.1627 24.8341 15.9848 24.6895 15.8469Z" fill="white"/>
<path d="M39 22.9999H29.2C28.6243 22.993 28.0693 23.2147 27.6568 23.6165C27.2444 24.0182 27.0082 24.5672 27 25.1429V38.8569C27.0082 39.4326 27.2444 39.9816 27.6568 40.3834C28.0693 40.7851 28.6243 41.0069 29.2 40.9999H38.8C39.3757 41.0069 39.9307 40.7851 40.3432 40.3834C40.7556 39.9816 40.9918 39.4326 41 38.8569V24.9999C41 24.4695 40.7893 23.9608 40.4142 23.5857C40.0391 23.2106 39.5304 22.9999 39 22.9999ZM37 31.9999H31C30.7348 31.9999 30.4804 31.8946 30.2929 31.707C30.1054 31.5195 30 31.2651 30 30.9999C30 30.7347 30.1054 30.4803 30.2929 30.2928C30.4804 30.1053 30.7348 29.9999 31 29.9999H37C37.2652 29.9999 37.5196 30.1053 37.7071 30.2928C37.8946 30.4803 38 30.7347 38 30.9999C38 31.2651 37.8946 31.5195 37.7071 31.707C37.5196 31.8946 37.2652 31.9999 37 31.9999ZM37 28.9999H31C30.7348 28.9999 30.4804 28.8946 30.2929 28.707C30.1054 28.5195 30 28.2651 30 27.9999C30 27.7347 30.1054 27.4803 30.2929 27.2928C30.4804 27.1053 30.7348 26.9999 31 26.9999H37C37.2652 26.9999 37.5196 27.1053 37.7071 27.2928C37.8946 27.4803 38 27.7347 38 27.9999C38 28.2651 37.8946 28.5195 37.7071 28.707C37.5196 28.8946 37.2652 28.9999 37 28.9999Z" fill="white"/>
<path d="M24.0004 35.9999H20.0004C19.7352 35.9999 19.4808 35.8946 19.2933 35.707C19.1058 35.5195 19.0004 35.2651 19.0004 34.9999V33.4139L19.2934 33.7069C19.482 33.8891 19.7346 33.9899 19.9968 33.9876C20.259 33.9853 20.5098 33.8801 20.6952 33.6947C20.8806 33.5093 20.9858 33.2585 20.9881 32.9963C20.9904 32.7341 20.8896 32.4815 20.7074 32.2929L18.7074 30.2929C18.5199 30.1054 18.2656 30.0001 18.0004 30.0001C17.7352 30.0001 17.4809 30.1054 17.2934 30.2929L15.2934 32.2929C15.1112 32.4815 15.0105 32.7341 15.0127 32.9963C15.015 33.2585 15.1202 33.5093 15.3056 33.6947C15.491 33.8801 15.7418 33.9853 16.004 33.9876C16.2662 33.9899 16.5188 33.8891 16.7074 33.7069L17.0004 33.4139V34.9999C17.0004 35.7956 17.3165 36.5586 17.8791 37.1212C18.4417 37.6838 19.2048 37.9999 20.0004 37.9999H24.0004C24.2656 37.9999 24.52 37.8946 24.7075 37.707C24.8951 37.5195 25.0004 37.2651 25.0004 36.9999C25.0004 36.7347 24.8951 36.4803 24.7075 36.2928C24.52 36.1053 24.2656 35.9999 24.0004 35.9999Z" fill="white"/>
<path d="M36.707 18.293C36.5195 18.1055 36.2652 18.0002 36 18.0002C35.7348 18.0002 35.4805 18.1055 35.293 18.293L35 18.586V17C35 16.2044 34.6839 15.4413 34.1213 14.8787C33.5587 14.3161 32.7956 14 32 14H28C27.7348 14 27.4804 14.1054 27.2929 14.2929C27.1054 14.4804 27 14.7348 27 15C27 15.2652 27.1054 15.5196 27.2929 15.7071C27.4804 15.8946 27.7348 16 28 16H32C32.2652 16 32.5196 16.1054 32.7071 16.2929C32.8946 16.4804 33 16.7348 33 17V18.586L32.707 18.293C32.5184 18.1108 32.2658 18.01 32.0036 18.0123C31.7414 18.0146 31.4906 18.1198 31.3052 18.3052C31.1198 18.4906 31.0146 18.7414 31.0123 19.0036C31.01 19.2658 31.1108 19.5184 31.293 19.707L33.293 21.707C33.4805 21.8945 33.7348 21.9998 34 21.9998C34.2652 21.9998 34.5195 21.8945 34.707 21.707L36.707 19.707C36.8945 19.5195 36.9998 19.2652 36.9998 19C36.9998 18.7348 36.8945 18.4805 36.707 18.293Z" fill="white"/>
</svg>
