<svg width="52" height="52" viewBox="0 0 52 52" fill="none" xmlns="http://www.w3.org/2000/svg">
<rect width="52" height="52" rx="10" fill="black"/>
<path d="M31.7597 13.65V14.94H22.2397C21.1789 14.94 20.1614 15.3614 19.4113 16.1116C18.6612 16.8617 18.2397 17.8791 18.2397 18.94V35.06H16.1197C15.6821 35.06 15.2624 34.8862 14.953 34.5767C14.6436 34.2673 14.4697 33.8476 14.4697 33.41V13.65C14.4697 13.2124 14.6436 12.7927 14.953 12.4833C15.2624 12.1738 15.6821 12 16.1197 12H30.1197C30.5556 12.0026 30.9727 12.1776 31.28 12.4868C31.5873 12.7959 31.7597 13.2141 31.7597 13.65Z" fill="white"/>
<path d="M35.53 16.9399H22.24C21.7096 16.9399 21.2009 17.1507 20.8258 17.5257C20.4507 17.9008 20.24 18.4095 20.24 18.9399V37.9999C20.24 38.5304 20.4507 39.0391 20.8258 39.4142C21.2009 39.7892 21.7096 39.9999 22.24 39.9999H35.53C36.0604 39.9999 36.5691 39.7892 36.9442 39.4142C37.3193 39.0391 37.53 38.5304 37.53 37.9999V18.9399C37.53 18.4095 37.3193 17.9008 36.9442 17.5257C36.5691 17.1507 36.0604 16.9399 35.53 16.9399ZM34 33.5899H23.74C23.4748 33.5899 23.2204 33.4846 23.0329 33.297C22.8454 33.1095 22.74 32.8552 22.74 32.5899C22.74 32.3247 22.8454 32.0704 23.0329 31.8828C23.2204 31.6953 23.4748 31.5899 23.74 31.5899H34C34.2652 31.5899 34.5196 31.6953 34.7071 31.8828C34.8946 32.0704 35 32.3247 35 32.5899C35 32.8552 34.8946 33.1095 34.7071 33.297C34.5196 33.4846 34.2652 33.5899 34 33.5899ZM34 29.4699H23.74C23.4748 29.4699 23.2204 29.3646 23.0329 29.177C22.8454 28.9895 22.74 28.7352 22.74 28.4699C22.74 28.2047 22.8454 27.9504 23.0329 27.7628C23.2204 27.5753 23.4748 27.4699 23.74 27.4699H34C34.2652 27.4699 34.5196 27.5753 34.7071 27.7628C34.8946 27.9504 35 28.2047 35 28.4699C35 28.7352 34.8946 28.9895 34.7071 29.177C34.5196 29.3646 34.2652 29.4699 34 29.4699ZM34 25.3499H23.74C23.4748 25.3499 23.2204 25.2446 23.0329 25.057C22.8454 24.8695 22.74 24.6152 22.74 24.3499C22.74 24.0847 22.8454 23.8304 23.0329 23.6428C23.2204 23.4553 23.4748 23.3499 23.74 23.3499H34C34.2652 23.3499 34.5196 23.4553 34.7071 23.6428C34.8946 23.8304 35 24.0847 35 24.3499C35 24.6152 34.8946 24.8695 34.7071 25.057C34.5196 25.2446 34.2652 25.3499 34 25.3499Z" fill="white"/>
</svg>
